<svg width="120" height="124" viewBox="0 0 120 124" fill="none" xmlns="http://www.w3.org/2000/svg">
<g filter="url(#filter0_d_797_2213)">
<path d="M57 0L71.0912 13.6318L90.5038 10.886L93.8912 30.197L111.21 39.386L102.6 57L111.21 74.614L93.8912 83.803L90.5038 103.114L71.0912 100.368L57 114L42.9088 100.368L23.4962 103.114L20.1088 83.803L2.78978 74.614L11.4 57L2.78978 39.386L20.1088 30.197L23.4962 10.886L42.9088 13.6318L57 0Z" fill="white"/>
<path d="M56.9999 9.91296L68.6405 21.174L84.6769 18.9058L87.4752 34.8583L101.782 42.4492L94.6695 56.9999L101.782 71.5506L87.4752 79.1415L84.6769 95.0941L68.6405 92.8258L56.9999 104.087L45.3594 92.8258L29.3229 95.0941L26.5246 79.1415L12.2176 71.5506L19.3304 56.9999L12.2176 42.4492L26.5246 34.8583L29.3229 18.9058L45.3594 21.174L56.9999 9.91296Z" fill="#96DB0A"/>
<path d="M31.2192 42.8172C32.2172 41.514 33.2216 40.1933 34.2325 38.8551C35.2522 37.5202 36.261 36.2011 37.2589 34.898C37.7756 35.0885 38.2966 35.2807 38.822 35.4745C39.3562 35.6715 39.8816 35.8653 40.3982 36.0559C40.3109 37.695 40.2172 39.3516 40.117 41.0256C40.0255 42.703 39.9362 44.3612 39.8489 46.0002C39.4724 45.8614 39.0871 45.7192 38.693 45.5739C38.3077 45.4318 37.9224 45.2897 37.5371 45.1475C37.5529 44.835 37.5731 44.5241 37.5976 44.2149C37.6254 43.8968 37.6472 43.5815 37.663 43.269C37.1639 43.0849 36.6604 42.8992 36.1525 42.7119C35.6533 42.5278 35.1542 42.3437 34.6551 42.1596C34.4642 42.4075 34.276 42.6614 34.0906 42.9213C33.9084 43.1724 33.7219 43.422 33.531 43.6699C33.1544 43.531 32.7691 43.3889 32.3751 43.2435C31.9898 43.1014 31.6045 42.9593 31.2192 42.8172ZM35.9549 40.4156C36.2614 40.5287 36.5679 40.6417 36.8744 40.7548C37.1896 40.871 37.5005 40.9857 37.8069 41.0988C37.8486 40.5272 37.8876 39.9497 37.9238 39.3661C37.9599 38.7826 37.9989 38.205 38.0406 37.6335C37.7012 38.0952 37.3514 38.5581 36.9912 39.0221C36.6398 39.4894 36.2943 39.9539 35.9549 40.4156ZM40.7056 46.3163C41.2483 44.8451 41.7974 43.3565 42.3529 41.8504C42.9084 40.3442 43.4575 38.8556 44.0002 37.3845C44.3854 37.5266 44.7707 37.6687 45.156 37.8108C45.5413 37.953 45.9222 38.0935 46.2988 38.2323C45.8821 39.3619 45.4606 40.5047 45.0343 41.6606C44.6111 42.8077 44.1913 43.946 43.7746 45.0757C44.2387 45.2468 44.7072 45.4196 45.18 45.5941C45.6529 45.7685 46.117 45.9397 46.5723 46.1076C46.4464 46.4491 46.3172 46.7994 46.1848 47.1584C46.0556 47.5087 45.928 47.8546 45.802 48.1961C44.9614 47.886 44.112 47.5727 43.2538 47.2562C42.3957 46.9396 41.5463 46.6263 40.7056 46.3163ZM47.0551 48.6583C47.5977 47.1871 48.1468 45.6985 48.7023 44.1924C49.2579 42.6862 49.8069 41.1976 50.3496 39.7265C50.7349 39.8686 51.1202 40.0107 51.5055 40.1528C51.8907 40.295 52.2717 40.4355 52.6482 40.5743C52.2315 41.7039 51.81 42.8467 51.3837 44.0026C50.9606 45.1497 50.5407 46.2881 50.124 47.4177C50.5881 47.5888 51.0566 47.7616 51.5295 47.9361C52.0023 48.1105 52.4664 48.2817 52.9218 48.4496C52.7958 48.7911 52.6666 49.1414 52.5342 49.5004C52.405 49.8507 52.2774 50.1966 52.1514 50.5381C51.3108 50.228 50.4614 49.9147 49.6032 49.5982C48.7451 49.2816 47.8957 48.9683 47.0551 48.6583ZM53.732 47.6741C53.8547 47.3413 53.979 47.0042 54.105 46.6627C54.2342 46.3124 54.3602 45.9709 54.4829 45.6382C55.0696 45.8546 55.6607 46.0726 56.2561 46.2922C56.8516 46.5118 57.4427 46.7299 58.0294 46.9463C57.9066 47.279 57.7806 47.6205 57.6515 47.9708C57.5255 48.3123 57.4011 48.6494 57.2784 48.9822C56.6917 48.7658 56.1006 48.5478 55.5052 48.3281C54.9097 48.1085 54.3187 47.8905 53.732 47.6741ZM64.3352 51.9731C64.0897 52.6386 63.7143 53.1169 63.209 53.408C62.7157 53.6936 62.1418 53.8202 61.4873 53.7876C60.8415 53.7584 60.1645 53.5982 59.4561 53.307C58.7445 53.0247 58.0537 52.6455 57.3837 52.1696C57.5226 51.793 57.6615 51.4165 57.8003 51.04C57.9392 50.6634 58.0781 50.2869 58.217 49.9104C58.8096 50.4075 59.3748 50.79 59.9126 51.058C60.4504 51.3261 60.9051 51.4689 61.2766 51.4866C61.6513 51.4955 61.8871 51.3686 61.984 51.1059C62.0519 50.922 62.0148 50.7392 61.8729 50.5575C61.7343 50.3671 61.5338 50.1688 61.2716 49.9627C61.0182 49.7598 60.7521 49.5373 60.4733 49.2952C60.1978 49.0443 59.9467 48.7676 59.72 48.4652C59.5053 48.1572 59.3642 47.8117 59.2965 47.4286C59.2322 47.0368 59.2888 46.6001 59.4664 46.1184C59.6861 45.523 60.0294 45.0776 60.4965 44.7823C60.9635 44.4871 61.5029 44.3328 62.1145 44.3197C62.735 44.3098 63.3867 44.4308 64.0697 44.6827C64.7615 44.9379 65.4364 45.3062 66.0944 45.7877C65.9555 46.1642 65.8167 46.5408 65.6778 46.9173C65.5389 47.2938 65.4 47.6704 65.2611 48.0469C64.745 47.5581 64.2384 47.1922 63.7411 46.9491C63.2558 46.7004 62.839 46.5765 62.4905 46.5773C62.1453 46.5693 61.9274 46.6879 61.837 46.9331C61.7724 47.1083 61.811 47.2867 61.9529 47.4683C62.0948 47.65 62.2925 47.8423 62.5459 48.0452C62.8114 48.2426 63.0819 48.4667 63.3574 48.7176C63.6362 48.9597 63.8813 49.2391 64.0927 49.5558C64.3162 49.867 64.4585 50.2229 64.5196 50.6235C64.584 51.0153 64.5225 51.4652 64.3352 51.9731ZM66.1015 55.6836C66.5181 54.554 66.938 53.4156 67.3611 52.2685C67.7875 51.1126 68.209 49.9699 68.6257 48.8403C68.2929 48.7175 67.9558 48.5932 67.6143 48.4672C67.2728 48.3413 66.9356 48.2169 66.6029 48.0942C66.7288 47.7527 66.8564 47.4068 66.9856 47.0565C67.118 46.6975 67.2472 46.3472 67.3732 46.0057C68.4152 46.3901 69.4704 46.7793 70.5387 47.1733C71.607 47.5674 72.6622 47.9566 73.7043 48.3409C73.5783 48.6824 73.4491 49.0327 73.3167 49.3917C73.1875 49.742 73.0599 50.0879 72.9339 50.4294C72.6099 50.3099 72.2772 50.1872 71.9357 50.0612C71.5942 49.9352 71.257 49.8109 70.9243 49.6881C70.5076 50.8177 70.0861 51.9605 69.6598 53.1164C69.2366 54.2635 68.8168 55.4018 68.4001 56.5314C68.0236 56.3926 67.6426 56.2521 67.2574 56.1099C66.8721 55.9678 66.4868 55.8257 66.1015 55.6836ZM70.406 57.2713C71.404 55.9682 72.4085 54.6475 73.4193 53.3093C74.439 51.9744 75.4478 50.6553 76.4458 49.3522C76.9624 49.5427 77.4834 49.7349 78.0088 49.9287C78.543 50.1257 79.0684 50.3195 79.585 50.5101C79.4977 52.1491 79.404 53.8057 79.3038 55.4798C79.2124 57.1572 79.123 58.8154 79.0357 60.4544C78.6592 60.3155 78.2739 60.1734 77.8798 60.0281C77.4946 59.886 77.1093 59.7438 76.724 59.6017C76.7398 59.2892 76.7599 58.9783 76.7845 58.669C76.8123 58.351 76.834 58.0357 76.8498 57.7232C76.3507 57.5391 75.8472 57.3534 75.3393 57.1661C74.8402 56.9819 74.341 56.7978 73.8419 56.6137C73.651 56.8617 73.4628 57.1156 73.2774 57.3755C73.0953 57.6266 72.9087 57.8761 72.7178 58.124C72.3413 57.9852 71.956 57.843 71.5619 57.6977C71.1766 57.5556 70.7913 57.4135 70.406 57.2713ZM75.1417 54.8698C75.4482 54.9829 75.7547 55.0959 76.0612 55.2089C76.3764 55.3252 76.6873 55.4399 76.9938 55.5529C77.0355 54.9814 77.0744 54.4038 77.1106 53.8203C77.1468 53.2368 77.1857 52.6592 77.2274 52.0877C76.888 52.5494 76.5382 53.0123 76.178 53.4763C75.8266 53.9436 75.4812 54.4081 75.1417 54.8698ZM79.8925 60.7704C80.4351 59.2993 80.9842 57.8107 81.5397 56.3046C82.0953 54.7984 82.6444 53.3098 83.187 51.8387C83.7124 52.0325 84.2378 52.2263 84.7632 52.4201C85.2973 52.6171 85.8271 52.8125 86.3525 53.0063C87.018 53.2518 87.5535 53.5935 87.959 54.0316C88.3676 54.4609 88.6237 54.9532 88.7272 55.5087C88.8427 56.0587 88.789 56.6357 88.5662 57.2399C88.3756 57.7566 88.101 58.1775 87.7422 58.5028C87.3835 58.8281 86.9778 59.0515 86.5251 59.173C86.6589 59.8889 86.7896 60.6136 86.917 61.347C87.0564 62.0749 87.193 62.7967 87.3269 63.5126C86.8978 63.3544 86.4687 63.1961 86.0396 63.0378C85.6106 62.8796 85.1815 62.7213 84.7524 62.563C84.6618 61.9725 84.5701 61.3717 84.4772 60.7604C84.3931 60.1524 84.3014 59.5515 84.202 58.9578C84.0532 58.9029 83.8999 58.8464 83.7423 58.7882C83.5934 58.7333 83.4446 58.6784 83.2957 58.6235C83.1148 59.1139 82.9307 59.613 82.7434 60.1209C82.5561 60.6288 82.372 61.1279 82.1911 61.6183C81.8146 61.4794 81.4336 61.3389 81.0483 61.1968C80.6631 61.0547 80.2778 60.9126 79.8925 60.7704ZM85.587 55.0816C85.4469 55.0299 85.3024 54.9766 85.1536 54.9217C85.0135 54.87 84.869 54.8168 84.7201 54.7618C84.6006 55.0858 84.4811 55.4098 84.3616 55.7338C84.2421 56.0578 84.1226 56.3818 84.0031 56.7058C84.1694 56.7672 84.3358 56.8286 84.5022 56.8899C84.6686 56.9513 84.8349 57.0127 85.0013 57.074C85.264 57.1709 85.5125 57.1581 85.7467 57.0356C85.9841 56.9043 86.1529 56.7029 86.253 56.4315C86.3564 56.1513 86.35 55.8853 86.234 55.6336C86.1267 55.3851 85.911 55.2011 85.587 55.0816ZM38.3006 59.5241C37.6614 59.2883 37.1123 58.9564 36.6533 58.5285C36.1976 58.0918 35.8503 57.5906 35.6113 57.025C35.3722 56.4593 35.2483 55.8515 35.2393 55.2016C35.2335 54.5429 35.355 53.8764 35.6037 53.2021C35.8524 52.5279 36.1912 51.9465 36.6201 51.4581C37.0489 50.9697 37.5363 50.5923 38.0821 50.3261C38.6312 50.0512 39.2192 49.9 39.8461 49.8725C40.4762 49.8364 41.1109 49.9362 41.7501 50.172C42.3894 50.4077 42.9325 50.7424 43.3794 51.1758C43.8383 51.6037 44.1873 52.1005 44.4263 52.6662C44.6773 53.2263 44.8073 53.8314 44.8163 54.4813C44.8253 55.1312 44.7054 55.7933 44.4567 56.4676C44.208 57.1419 43.8676 57.7276 43.4355 58.2248C43.0066 58.7132 42.5133 59.0933 41.9554 59.365C41.4064 59.64 40.8168 59.7956 40.1866 59.8318C39.5685 59.8624 38.9398 59.7598 38.3006 59.5241ZM39.0855 57.3962C39.5145 57.5545 39.9211 57.585 40.3051 57.4879C40.6923 57.382 41.0402 57.1672 41.3487 56.8432C41.6659 56.5225 41.9182 56.1082 42.1055 55.6004C42.2929 55.0925 42.3684 54.618 42.3322 54.1768C42.3047 53.7389 42.1764 53.3584 41.9475 53.0352C41.7217 52.7032 41.3943 52.4581 40.9653 52.2998C40.5449 52.1448 40.1384 52.1142 39.7457 52.2081C39.3617 52.3052 39.011 52.5141 38.6938 52.8348C38.3885 53.15 38.1422 53.5615 37.9549 54.0694C37.7675 54.5773 37.686 55.0545 37.7103 55.5012C37.7433 55.9511 37.8727 56.342 38.0984 56.674C38.3361 57.0004 38.6651 57.2412 39.0855 57.3962ZM44.0699 61.4133C44.6125 59.9422 45.1616 58.4536 45.7171 56.9474C46.2727 55.4413 46.8217 53.9527 47.3644 52.4815C48.2488 52.8078 49.142 53.1372 50.0439 53.4699C50.9458 53.8026 51.839 54.132 52.7234 54.4582C52.5975 54.7998 52.4699 55.1456 52.3407 55.4959C52.2115 55.8462 52.0839 56.1921 51.9579 56.5336C51.4501 56.3462 50.9378 56.1573 50.4211 55.9667C49.9133 55.7794 49.4054 55.592 48.8975 55.4047C48.8038 55.6587 48.7069 55.9214 48.6068 56.1928C48.5099 56.4555 48.4146 56.7138 48.321 56.9678C48.7851 57.139 49.2535 57.3118 49.7264 57.4862C50.1993 57.6606 50.6634 57.8318 51.1187 57.9997C50.9992 58.3237 50.8781 58.6521 50.7553 58.9849C50.6326 59.3176 50.5099 59.6504 50.3871 59.9831C49.9318 59.8152 49.4677 59.644 48.9948 59.4696C48.522 59.2951 48.0535 59.1223 47.5894 58.9512C47.3891 59.4941 47.1856 60.0457 46.9789 60.6062C46.7722 61.1666 46.5687 61.7183 46.3685 62.2612C45.9919 62.1223 45.611 61.9818 45.2257 61.8397C44.8404 61.6975 44.4551 61.5554 44.0699 61.4133ZM55.1891 65.5147C55.6058 64.3851 56.0257 63.2467 56.4488 62.0996C56.8751 60.9437 57.2966 59.801 57.7133 58.6714C57.3805 58.5486 57.0434 58.4243 56.7019 58.2983C56.3604 58.1723 56.0233 58.048 55.6905 57.9253C55.8165 57.5837 55.9441 57.2379 56.0732 56.8876C56.2057 56.5286 56.3349 56.1783 56.4608 55.8368C57.5029 56.2212 58.5581 56.6104 59.6264 57.0044C60.6947 57.3985 61.7499 57.7877 62.7919 58.172C62.6659 58.5135 62.5367 58.8638 62.4043 59.2228C62.2751 59.5731 62.1475 59.919 62.0216 60.2605C61.6976 60.141 61.3648 60.0182 61.0233 59.8923C60.6818 59.7663 60.3447 59.642 60.0119 59.5192C59.5952 60.6488 59.1737 61.7916 58.7474 62.9474C58.3243 64.0946 57.9044 65.2329 57.4877 66.3625C57.1112 66.2236 56.7303 66.0831 56.345 65.941C55.9597 65.7989 55.5744 65.6568 55.1891 65.5147ZM63.0437 68.4119C62.6672 68.273 62.2863 68.1325 61.901 67.9904C61.5157 67.8483 61.1304 67.7061 60.7451 67.564C61.2877 66.0929 61.8368 64.6043 62.3924 63.0981C62.9479 61.592 63.497 60.1034 64.0396 58.6323C64.4249 58.7744 64.8102 58.9165 65.1955 59.0586C65.5808 59.2007 65.9617 59.3412 66.3382 59.4801C66.1412 60.0143 65.9426 60.5528 65.7423 61.0957C65.5453 61.6299 65.3483 62.164 65.1512 62.6982C65.6153 62.8694 66.0838 63.0422 66.5567 63.2166C67.0295 63.391 67.4936 63.5622 67.949 63.7301C68.146 63.196 68.343 62.6618 68.5401 62.1277C68.7403 61.5847 68.939 61.0462 69.136 60.5121C69.5213 60.6542 69.9066 60.7963 70.2919 60.9384C70.6771 61.0805 71.0581 61.221 71.4346 61.3599C70.892 62.831 70.3429 64.3197 69.7873 65.8258C69.2318 67.3319 68.6827 68.8206 68.1401 70.2917C67.7635 70.1528 67.3826 70.0123 66.9973 69.8702C66.612 69.7281 66.2268 69.586 65.8415 69.4438C66.0611 68.8484 66.2823 68.2486 66.5052 67.6443C66.7313 67.0314 66.9526 66.4316 67.169 65.8449C66.7136 65.6769 66.2495 65.5057 65.7767 65.3313C65.3038 65.1569 64.8353 64.9841 64.3712 64.8129C64.1548 65.3996 63.9336 65.9994 63.7075 66.6124C63.4846 67.2166 63.2634 67.8164 63.0437 68.4119ZM69.8523 70.9233C70.395 69.4521 70.9441 67.9635 71.4996 66.4574C72.0551 64.9512 72.6042 63.4626 73.1469 61.9915C74.0313 62.3177 74.9245 62.6472 75.8264 62.9798C76.7283 63.3125 77.6215 63.642 78.5059 63.9682C78.3832 64.3009 78.2572 64.6425 78.128 64.9927C77.9988 65.343 77.8729 65.6845 77.7501 66.0172C77.2422 65.8299 76.73 65.641 76.2133 65.4504C75.7054 65.2631 75.1976 65.0757 74.6897 64.8884C74.6089 65.1073 74.5282 65.3262 74.4474 65.5451C74.3699 65.7553 74.2908 65.9698 74.21 66.1888C74.6741 66.3599 75.1426 66.5327 75.6155 66.7072C76.0883 66.8816 76.5524 67.0528 77.0078 67.2207C76.8883 67.5447 76.7672 67.8731 76.6444 68.2058C76.5217 68.5386 76.3989 68.8713 76.2762 69.2041C75.8209 69.0361 75.3568 68.865 74.8839 68.6905C74.411 68.5161 73.9426 68.3433 73.4785 68.1721C73.3848 68.4261 73.2895 68.6844 73.1926 68.9471C73.0957 69.2098 73.0004 69.4681 72.9068 69.7221C73.4147 69.9094 73.9225 70.0967 74.4304 70.2841C74.9471 70.4746 75.4593 70.6636 75.9672 70.8509C75.8445 71.1837 75.7185 71.5252 75.5893 71.8754C75.4601 72.2257 75.3341 72.5672 75.2114 72.9C74.327 72.5737 73.4338 72.2443 72.5319 71.9116C71.6299 71.5789 70.7368 71.2495 69.8523 70.9233ZM38.9847 63.2468C38.8535 64.2231 38.7173 65.2124 38.5764 66.2149C38.4354 67.2174 38.2933 68.2095 38.15 69.1913C38.6873 68.3549 39.2279 67.5097 39.7717 66.6558C40.3242 65.8051 40.8631 64.9643 41.3884 64.1334C41.7299 64.2594 42.0758 64.387 42.4261 64.5162C42.7764 64.6454 43.1223 64.773 43.4638 64.8989C43.3412 65.8784 43.2155 66.8666 43.0865 67.8636C42.9575 68.8605 42.8302 69.8531 42.7044 70.8413C43.2417 70.0049 43.7763 69.1625 44.3081 68.3141C44.8486 67.469 45.3815 66.631 45.9069 65.8001C46.2571 65.9293 46.6074 66.0585 46.9577 66.1877C47.3167 66.3201 47.6713 66.4509 48.0216 66.5801C47.155 67.9317 46.2819 69.3008 45.4023 70.6875C44.5228 72.0741 43.6497 73.4432 42.7831 74.7948C42.354 74.6366 41.9162 74.4751 41.4696 74.3104C41.0318 74.1489 40.5939 73.9874 40.1561 73.8259C40.2726 72.9437 40.3863 72.0555 40.4973 71.1613C40.6115 70.2584 40.7268 69.3658 40.8433 68.4836C40.3678 69.2334 39.8847 69.9903 39.394 70.7543C38.9065 71.5096 38.425 72.2622 37.9494 73.0119C37.5204 72.8537 37.0869 72.6938 36.6491 72.5323C36.22 72.374 35.7909 72.2158 35.3619 72.0575C35.5805 70.4669 35.8056 68.8587 36.0371 67.2331C36.2687 65.6074 36.4938 63.9993 36.7124 62.4087C37.0889 62.5476 37.4655 62.6864 37.842 62.8253C38.2273 62.9674 38.6082 63.1079 38.9847 63.2468ZM45.773 75.8977C46.3156 74.4265 46.8647 72.9379 47.4202 71.4318C47.9758 69.9256 48.5248 68.437 49.0675 66.9659C49.9519 67.2921 50.8451 67.6216 51.747 67.9542C52.6489 68.2869 53.5421 68.6164 54.4265 68.9426C54.3038 69.2753 54.1778 69.6168 54.0486 69.9671C53.9194 70.3174 53.7935 70.6589 53.6707 70.9916C53.1628 70.8043 52.6506 70.6154 52.1339 70.4248C51.6261 70.2375 51.1182 70.0501 50.6103 69.8628C50.5295 70.0817 50.4488 70.3006 50.368 70.5195C50.2905 70.7297 50.2114 70.9442 50.1306 71.1631C50.5947 71.3343 51.0632 71.5071 51.5361 71.6815C52.0089 71.856 52.473 72.0272 52.9284 72.1951C52.8089 72.5191 52.6878 72.8475 52.565 73.1802C52.4423 73.513 52.3195 73.8457 52.1968 74.1785C51.7415 74.0105 51.2774 73.8393 50.8045 73.6649C50.3316 73.4905 49.8632 73.3177 49.3991 73.1465C49.3054 73.4005 49.2101 73.6588 49.1132 73.9215C49.0163 74.1842 48.921 74.4425 48.8274 74.6965C49.3353 74.8838 49.8431 75.0711 50.351 75.2585C50.8677 75.449 51.3799 75.638 51.8878 75.8253C51.7651 76.1581 51.6391 76.4996 51.5099 76.8498C51.3807 77.2001 51.2548 77.5416 51.132 77.8744C50.2476 77.5481 49.3544 77.2187 48.4525 76.886C47.5506 76.5533 46.6574 76.2239 45.773 75.8977ZM52.7124 78.4573C53.255 76.9862 53.8041 75.4976 54.3597 73.9914C54.9152 72.4853 55.4643 70.9966 56.0069 69.5255C56.8914 69.8517 57.7845 70.1812 58.6865 70.5139C59.5884 70.8466 60.4816 71.176 61.366 71.5022C61.2433 71.835 61.1173 72.1765 60.9881 72.5268C60.8589 72.877 60.7329 73.2185 60.6102 73.5513C60.1023 73.364 59.59 73.175 59.0734 72.9844C58.5655 72.7971 58.0576 72.6098 57.5498 72.4224C57.469 72.6413 57.3883 72.8603 57.3075 73.0792C57.23 73.2893 57.1509 73.5039 57.0701 73.7228C57.5342 73.894 58.0027 74.0668 58.4755 74.2412C58.9484 74.4156 59.4125 74.5868 59.8679 74.7547C59.7483 75.0787 59.6272 75.4071 59.5045 75.7399C59.3818 76.0726 59.259 76.4054 59.1363 76.7381C58.6809 76.5702 58.2168 76.399 57.744 76.2246C57.2711 76.0502 56.8026 75.8774 56.3385 75.7062C56.2449 75.9601 56.1496 76.2184 56.0527 76.4811C55.9558 76.7438 55.8605 77.0022 55.7668 77.2561C56.2747 77.4434 56.7826 77.6308 57.2905 77.8181C57.8071 78.0087 58.3194 78.1976 58.8273 78.385C58.7045 78.7177 58.5786 79.0592 58.4494 79.4095C58.3202 79.7597 58.1942 80.1013 58.0715 80.434C57.1871 80.1078 56.2939 79.7783 55.392 79.4457C54.49 79.113 53.5968 78.7835 52.7124 78.4573ZM59.6519 81.0169C60.1945 79.5458 60.7436 78.0572 61.2991 76.5511C61.8547 75.0449 62.4038 73.5563 62.9464 72.0852C63.3317 72.2273 63.717 72.3694 64.1023 72.5115C64.4876 72.6536 64.8685 72.7941 65.245 72.933C65.0351 73.5022 64.8219 74.0801 64.6055 74.6668C64.3923 75.2448 64.1808 75.8183 63.9708 76.3875C64.6273 75.9831 65.2855 75.5742 65.9453 75.161C66.617 74.7423 67.2812 74.3307 67.9377 73.9262C68.3668 74.0845 68.8002 74.2444 69.238 74.4059C69.6759 74.5674 70.1093 74.7272 70.5384 74.8855C69.7283 75.3826 68.9063 75.8851 68.0723 76.3932C67.2502 76.8958 66.4342 77.3956 65.6241 77.8927C65.9178 78.8764 66.2127 79.8705 66.5087 80.875C66.8134 81.8828 67.111 82.8829 67.4015 83.8754C66.9462 83.7075 66.4864 83.5379 66.0223 83.3667C65.567 83.1987 65.1117 83.0308 64.6563 82.8628C64.439 82.0764 64.2174 81.2883 63.9914 80.4987C63.7686 79.7002 63.5469 78.9122 63.3264 78.1345C63.1004 78.7474 62.871 79.3692 62.6385 79.9996C62.4092 80.6214 62.1798 81.2431 61.9505 81.8648C61.574 81.7259 61.1931 81.5854 60.8078 81.4433C60.4225 81.3012 60.0372 81.1591 59.6519 81.0169Z" fill="black"/>
</g>
<defs>
<filter id="filter0_d_797_2213" x="0.789795" y="0" width="118.42" height="124" filterUnits="userSpaceOnUse" color-interpolation-filters="sRGB">
<feFlood flood-opacity="0" result="BackgroundImageFix"/>
<feColorMatrix in="SourceAlpha" type="matrix" values="0 0 0 0 0 0 0 0 0 0 0 0 0 0 0 0 0 0 127 0" result="hardAlpha"/>
<feOffset dx="3" dy="5"/>
<feGaussianBlur stdDeviation="2.5"/>
<feComposite in2="hardAlpha" operator="out"/>
<feColorMatrix type="matrix" values="0 0 0 0 0 0 0 0 0 0 0 0 0 0 0 0 0 0 0.75 0"/>
<feBlend mode="normal" in2="BackgroundImageFix" result="effect1_dropShadow_797_2213"/>
<feBlend mode="normal" in="SourceGraphic" in2="effect1_dropShadow_797_2213" result="shape"/>
</filter>
</defs>
</svg>
