<svg width="26" height="26" viewBox="0 0 26 26" fill="none" xmlns="http://www.w3.org/2000/svg">
<g id="skillet">
<mask id="mask0_797_5745" style="mask-type:alpha" maskUnits="userSpaceOnUse" x="0" y="0" width="26" height="26">
<rect id="Bounding box" width="25.4695" height="25.4695" fill="#D9D9D9"/>
</mask>
<g mask="url(#mask0_797_5745)">
<path id="skillet_2" d="M5.30614 21.2245C4.42178 21.2245 3.67008 20.915 3.05103 20.2959C2.43198 19.6769 2.12245 18.9251 2.12245 18.0408V13.7959C2.12245 13.4952 2.22415 13.2432 2.42755 13.0398C2.63096 12.8364 2.883 12.7347 3.18368 12.7347H17.0062C17.0946 12.1333 17.3334 11.6071 17.7225 11.1561C18.1116 10.7051 18.5892 10.3823 19.1552 10.1877L23.0552 8.8877C23.3382 8.79926 23.6123 8.81695 23.8776 8.94076C24.1429 9.06457 24.3198 9.26797 24.4082 9.55096C24.4967 9.83396 24.4746 10.1081 24.3419 10.3734C24.2093 10.6387 24.0014 10.8156 23.7184 10.904L19.8184 12.204C19.6062 12.2748 19.4337 12.403 19.3011 12.5887C19.1684 12.7744 19.1021 12.9823 19.1021 13.2122V18.0408C19.1021 18.9251 18.7926 19.6769 18.1735 20.2959C17.5545 20.915 16.8028 21.2245 15.9184 21.2245H5.30614ZM3.95307 7.42851C3.4932 6.88021 3.16157 6.35844 2.95817 5.8632C2.75477 5.36796 2.64422 4.8285 2.62654 4.24482C2.62654 3.94414 2.73708 3.6921 2.95817 3.4887C3.17926 3.28529 3.44014 3.18359 3.74082 3.18359C4.00613 3.18359 4.2228 3.28972 4.39083 3.50196C4.55885 3.71421 4.64287 3.96183 4.64287 4.24482C4.64287 4.59857 4.70477 4.92578 4.82858 5.22646C4.95239 5.52714 5.16464 5.85435 5.46532 6.2081C5.99593 6.84483 6.37179 7.41524 6.59288 7.91933C6.81396 8.42341 6.91567 8.96729 6.89798 9.55096C6.88029 9.85165 6.75648 10.1037 6.52655 10.3071C6.29662 10.5105 6.03131 10.6122 5.73063 10.6122C5.48301 10.6122 5.28403 10.5061 5.13369 10.2938C4.98335 10.0816 4.90818 9.8428 4.90818 9.5775C4.90818 9.17069 4.82416 8.79926 4.65613 8.46321C4.48811 8.12715 4.25375 7.78225 3.95307 7.42851ZM8.22451 7.42851C7.76465 6.88021 7.42859 6.35844 7.21635 5.8632C7.0041 5.36796 6.88913 4.8285 6.87145 4.24482C6.87145 3.94414 6.98199 3.6921 7.20308 3.4887C7.42417 3.28529 7.68506 3.18359 7.98574 3.18359C8.25104 3.18359 8.46771 3.28972 8.63574 3.50196C8.80377 3.71421 8.88778 3.96183 8.88778 4.24482C8.88778 4.59857 8.94969 4.92578 9.0735 5.22646C9.19731 5.52714 9.40955 5.85435 9.71023 6.2081C10.2408 6.84483 10.6167 7.41524 10.8378 7.91933C11.0589 8.42341 11.1606 8.96729 11.1429 9.55096C11.1252 9.85165 11.0014 10.1037 10.7715 10.3071C10.5415 10.5105 10.2762 10.6122 9.97554 10.6122C9.72792 10.6122 9.52894 10.5061 9.3786 10.2938C9.22826 10.0816 9.15309 9.8428 9.15309 9.5775C9.17077 9.17069 9.0956 8.79926 8.92758 8.46321C8.75955 8.12715 8.52519 7.78225 8.22451 7.42851ZM12.4694 7.42851C12.0096 6.88021 11.6735 6.35844 11.4613 5.8632C11.249 5.36796 11.134 4.8285 11.1164 4.24482C11.1164 3.94414 11.2269 3.6921 11.448 3.4887C11.6691 3.28529 11.93 3.18359 12.2306 3.18359C12.496 3.18359 12.7126 3.28972 12.8807 3.50196C13.0487 3.71421 13.1327 3.96183 13.1327 4.24482C13.1327 4.59857 13.1946 4.92578 13.3184 5.22646C13.4422 5.52714 13.6545 5.85435 13.9551 6.2081C14.4858 6.84483 14.8616 7.41524 15.0827 7.91933C15.3038 8.42341 15.4055 8.96729 15.3878 9.55096C15.3701 9.85165 15.2463 10.1037 15.0164 10.3071C14.7864 10.5105 14.5211 10.6122 14.2205 10.6122C13.9728 10.6122 13.7739 10.5061 13.6235 10.2938C13.4732 10.0816 13.398 9.8428 13.398 9.5775C13.4157 9.17069 13.3405 8.79926 13.1725 8.46321C13.0045 8.12715 12.7701 7.78225 12.4694 7.42851Z" fill="#1C1B1F"/>
</g>
</g>
</svg>
