<svg width="26" height="26" viewBox="0 0 26 26" fill="none" xmlns="http://www.w3.org/2000/svg">
<g id="skillet">
<mask id="mask0_800_6102" style="mask-type:alpha" maskUnits="userSpaceOnUse" x="0" y="0" width="26" height="26">
<rect id="Bounding box" width="25.4695" height="25.4695" fill="#D9D9D9"/>
</mask>
<g mask="url(#mask0_800_6102)">
<path id="skillet_2" d="M5.30612 21.2245C4.42176 21.2245 3.67006 20.915 3.05101 20.2959C2.43196 19.6769 2.12244 18.9251 2.12244 18.0408V13.7959C2.12244 13.4952 2.22414 13.2432 2.42754 13.0398C2.63094 12.8364 2.88298 12.7347 3.18366 12.7347H17.0062C17.0946 12.1333 17.3334 11.6071 17.7225 11.1561C18.1116 10.7051 18.5892 10.3823 19.1551 10.1877L23.0552 8.8877C23.3382 8.79926 23.6123 8.81695 23.8776 8.94076C24.1429 9.06457 24.3198 9.26797 24.4082 9.55096C24.4967 9.83396 24.4746 10.1081 24.3419 10.3734C24.2092 10.6387 24.0014 10.8156 23.7184 10.904L19.8184 12.204C19.6062 12.2748 19.4337 12.403 19.3011 12.5887C19.1684 12.7744 19.1021 12.9823 19.1021 13.2122V18.0408C19.1021 18.9251 18.7926 19.6769 18.1735 20.2959C17.5545 20.915 16.8028 21.2245 15.9184 21.2245H5.30612ZM3.95305 7.42851C3.49319 6.88021 3.16156 6.35844 2.95815 5.8632C2.75475 5.36796 2.64421 4.8285 2.62652 4.24482C2.62652 3.94414 2.73706 3.6921 2.95815 3.4887C3.17924 3.28529 3.44013 3.18359 3.74081 3.18359C4.00612 3.18359 4.22278 3.28972 4.39081 3.50196C4.55884 3.71421 4.64285 3.96183 4.64285 4.24482C4.64285 4.59857 4.70476 4.92578 4.82857 5.22646C4.95238 5.52714 5.16462 5.85435 5.4653 6.2081C5.99592 6.84483 6.37177 7.41524 6.59286 7.91933C6.81395 8.42341 6.91565 8.96729 6.89796 9.55096C6.88028 9.85165 6.75647 10.1037 6.52653 10.3071C6.2966 10.5105 6.03129 10.6122 5.73061 10.6122C5.48299 10.6122 5.28401 10.5061 5.13367 10.2938C4.98333 10.0816 4.90816 9.8428 4.90816 9.5775C4.90816 9.17069 4.82415 8.79926 4.65612 8.46321C4.48809 8.12715 4.25374 7.78225 3.95305 7.42851ZM8.2245 7.42851C7.76463 6.88021 7.42858 6.35844 7.21633 5.8632C7.00409 5.36796 6.88912 4.8285 6.87143 4.24482C6.87143 3.94414 6.98198 3.6921 7.20307 3.4887C7.42415 3.28529 7.68504 3.18359 7.98572 3.18359C8.25103 3.18359 8.4677 3.28972 8.63572 3.50196C8.80375 3.71421 8.88776 3.96183 8.88776 4.24482C8.88776 4.59857 8.94967 4.92578 9.07348 5.22646C9.19729 5.52714 9.40954 5.85435 9.71022 6.2081C10.2408 6.84483 10.6167 7.41524 10.8378 7.91933C11.0589 8.42341 11.1606 8.96729 11.1429 9.55096C11.1252 9.85165 11.0014 10.1037 10.7714 10.3071C10.5415 10.5105 10.2762 10.6122 9.97552 10.6122C9.7279 10.6122 9.52892 10.5061 9.37858 10.2938C9.22824 10.0816 9.15307 9.8428 9.15307 9.5775C9.17076 9.17069 9.09559 8.79926 8.92756 8.46321C8.75953 8.12715 8.52518 7.78225 8.2245 7.42851ZM12.4694 7.42851C12.0095 6.88021 11.6735 6.35844 11.4612 5.8632C11.249 5.36796 11.134 4.8285 11.1163 4.24482C11.1163 3.94414 11.2269 3.6921 11.448 3.4887C11.6691 3.28529 11.93 3.18359 12.2306 3.18359C12.4959 3.18359 12.7126 3.28972 12.8806 3.50196C13.0487 3.71421 13.1327 3.96183 13.1327 4.24482C13.1327 4.59857 13.1946 4.92578 13.3184 5.22646C13.4422 5.52714 13.6544 5.85435 13.9551 6.2081C14.4857 6.84483 14.8616 7.41524 15.0827 7.91933C15.3038 8.42341 15.4055 8.96729 15.3878 9.55096C15.3701 9.85165 15.2463 10.1037 15.0164 10.3071C14.7864 10.5105 14.5211 10.6122 14.2204 10.6122C13.9728 10.6122 13.7738 10.5061 13.6235 10.2938C13.4732 10.0816 13.398 9.8428 13.398 9.5775C13.4157 9.17069 13.3405 8.79926 13.1725 8.46321C13.0044 8.12715 12.7701 7.78225 12.4694 7.42851Z" fill="white"/>
</g>
</g>
</svg>
