<svg width="34" height="35" viewBox="0 0 34 35" fill="none" xmlns="http://www.w3.org/2000/svg">
<g id="bar_chart">
<mask id="mask0_800_6095" style="mask-type:alpha" maskUnits="userSpaceOnUse" x="0" y="0" width="34" height="35">
<rect id="Bounding box" width="33.8829" height="34.1191" fill="#D9D9D9"/>
</mask>
<g mask="url(#mask0_800_6095)">
<path id="bar_chart_2" d="M24.7063 26.9028C24.1108 26.9028 23.609 26.6973 23.2008 26.2863C22.7927 25.8753 22.5886 25.37 22.5886 24.7704V22.2005C22.5886 21.6009 22.7927 21.0955 23.2008 20.6845C23.609 20.2736 24.1108 20.0681 24.7063 20.0681C25.3018 20.0681 25.8036 20.2736 26.2117 20.6845C26.6199 21.0955 26.824 21.6009 26.824 22.2005V24.7704C26.824 25.37 26.6199 25.8753 26.2117 26.2863C25.8036 26.6973 25.3018 26.9028 24.7063 26.9028ZM16.9414 26.9028C16.346 26.9028 15.8441 26.6973 15.436 26.2863C15.0278 25.8753 14.8238 25.37 14.8238 24.7704V9.13245C14.8238 8.5328 15.0278 8.02748 15.436 7.61649C15.8441 7.2055 16.346 7 16.9414 7C17.5369 7 18.0388 7.2055 18.4469 7.61649C18.8551 8.02748 19.0591 8.5328 19.0591 9.13245V24.7704C19.0591 25.37 18.8551 25.8753 18.4469 26.2863C18.0388 26.6973 17.5369 26.9028 16.9414 26.9028ZM9.17661 26.9028C8.58112 26.9028 8.0793 26.6973 7.67115 26.2863C7.263 25.8753 7.05893 25.37 7.05893 24.7704V15.9672C7.05893 15.3676 7.263 14.8623 7.67115 14.4513C8.0793 14.0402 8.58112 13.8347 9.17661 13.8347C9.7721 13.8347 10.2739 14.0402 10.6821 14.4513C11.0902 14.8623 11.2943 15.3676 11.2943 15.9672V24.7704C11.2943 25.37 11.0902 25.8753 10.6821 26.2863C10.2739 26.6973 9.7721 26.9028 9.17661 26.9028Z" fill="white"/>
</g>
</g>
</svg>
