<svg width="23" height="16" viewBox="0 0 23 16" fill="none" xmlns="http://www.w3.org/2000/svg">
<path id="menu" d="M1.22537 15.3536C0.87818 15.3536 0.587155 15.2362 0.352293 15.0013C0.117431 14.7664 0 14.4754 0 14.1282C0 13.781 0.117431 13.49 0.352293 13.2551C0.587155 13.0203 0.87818 12.9028 1.22537 12.9028H20.8313C21.1784 12.9028 21.4695 13.0203 21.7043 13.2551C21.9392 13.49 22.0566 13.781 22.0566 14.1282C22.0566 14.4754 21.9392 14.7664 21.7043 15.0013C21.4695 15.2362 21.1784 15.3536 20.8313 15.3536H1.22537ZM1.22537 9.22674C0.87818 9.22674 0.587155 9.10931 0.352293 8.87445C0.117431 8.63959 0 8.34856 0 8.00138C0 7.65419 0.117431 7.36316 0.352293 7.1283C0.587155 6.89344 0.87818 6.77601 1.22537 6.77601H20.8313C21.1784 6.77601 21.4695 6.89344 21.7043 7.1283C21.9392 7.36316 22.0566 7.65419 22.0566 8.00138C22.0566 8.34856 21.9392 8.63959 21.7043 8.87445C21.4695 9.10931 21.1784 9.22674 20.8313 9.22674H1.22537ZM1.22537 3.09991C0.87818 3.09991 0.587155 2.98247 0.352293 2.74761C0.117431 2.51275 0 2.22173 0 1.87454C0 1.52735 0.117431 1.23633 0.352293 1.00146C0.587155 0.766601 0.87818 0.64917 1.22537 0.64917H20.8313C21.1784 0.64917 21.4695 0.766601 21.7043 1.00146C21.9392 1.23633 22.0566 1.52735 22.0566 1.87454C22.0566 2.22173 21.9392 2.51275 21.7043 2.74761C21.4695 2.98247 21.1784 3.09991 20.8313 3.09991H1.22537Z" fill="white"/>
</svg>
