<svg width="22" height="22" viewBox="0 0 22 22" fill="none" xmlns="http://www.w3.org/2000/svg">
<path id="search" d="M7.96489 16.1632C5.73881 16.1632 3.8548 15.3922 2.31288 13.8503C0.770961 12.3084 0 10.4244 0 8.19829C0 5.97221 0.770961 4.0882 2.31288 2.54628C3.8548 1.00436 5.73881 0.233398 7.96489 0.233398C10.191 0.233398 12.075 1.00436 13.6169 2.54628C15.1588 4.0882 15.9298 5.97221 15.9298 8.19829C15.9298 9.09689 15.7868 9.94444 15.5009 10.7409C15.215 11.5374 14.827 12.242 14.3368 12.8547L21.1989 19.7167C21.4235 19.9414 21.5358 20.2273 21.5358 20.5745C21.5358 20.9217 21.4235 21.2076 21.1989 21.4323C20.9742 21.6569 20.6883 21.7692 20.3411 21.7692C19.9939 21.7692 19.708 21.6569 19.4834 21.4323L12.6213 14.5702C12.0086 15.0604 11.304 15.4484 10.5075 15.7343C9.71104 16.0202 8.86349 16.1632 7.96489 16.1632ZM7.96489 13.7124C9.4966 13.7124 10.7986 13.1763 11.8708 12.1041C12.9429 11.032 13.479 9.73 13.479 8.19829C13.479 6.66658 12.9429 5.36463 11.8708 4.29243C10.7986 3.22023 9.4966 2.68413 7.96489 2.68413C6.43318 2.68413 5.13123 3.22023 4.05903 4.29243C2.98683 5.36463 2.45074 6.66658 2.45074 8.19829C2.45074 9.73 2.98683 11.032 4.05903 12.1041C5.13123 13.1763 6.43318 13.7124 7.96489 13.7124Z" fill="white"/>
</svg>
