<svg width="27" height="27" viewBox="0 0 27 27" fill="none" xmlns="http://www.w3.org/2000/svg">
<g id="account_circle">
<mask id="mask0_800_6098" style="mask-type:alpha" maskUnits="userSpaceOnUse" x="0" y="0" width="27" height="27">
<rect id="Bounding box" width="26.5375" height="26.5375" fill="#D9D9D9"/>
</mask>
<g mask="url(#mask0_800_6098)">
<path id="account_circle_2" d="M6.46893 18.9082C7.4088 18.1894 8.45924 17.6227 9.62026 17.2081C10.7813 16.7935 11.9976 16.5861 13.2692 16.5861C14.5407 16.5861 15.757 16.7935 16.9181 17.2081C18.0791 17.6227 19.1295 18.1894 20.0694 18.9082C20.7144 18.1526 21.2166 17.2956 21.5759 16.3373C21.9353 15.379 22.115 14.3562 22.115 13.2689C22.115 10.8179 21.2534 8.73085 19.5303 7.00776C17.8072 5.28467 15.7202 4.42312 13.2692 4.42312C10.8181 4.42312 8.73107 5.28467 7.00797 7.00776C5.28488 8.73085 4.42334 10.8179 4.42334 13.2689C4.42334 14.3562 4.60302 15.379 4.96238 16.3373C5.32174 17.2956 5.82393 18.1526 6.46893 18.9082ZM13.2692 14.3747C12.1819 14.3747 11.265 14.0015 10.5187 13.2551C9.77229 12.5088 9.39911 11.5919 9.39911 10.5046C9.39911 9.41733 9.77229 8.50049 10.5187 7.75413C11.265 7.00776 12.1819 6.63458 13.2692 6.63458C14.3565 6.63458 15.2733 7.00776 16.0197 7.75413C16.766 8.50049 17.1392 9.41733 17.1392 10.5046C17.1392 11.5919 16.766 12.5088 16.0197 13.2551C15.2733 14.0015 14.3565 14.3747 13.2692 14.3747ZM13.2692 24.3262C11.7396 24.3262 10.3021 24.036 8.95682 23.4555C7.61152 22.875 6.44129 22.0871 5.44614 21.092C4.45098 20.0968 3.66315 18.9266 3.08264 17.5813C2.50214 16.236 2.21188 14.7985 2.21188 13.2689C2.21188 11.7394 2.50214 10.3019 3.08264 8.95661C3.66315 7.61131 4.45098 6.44108 5.44614 5.44592C6.44129 4.45077 7.61152 3.66294 8.95682 3.08243C10.3021 2.50192 11.7396 2.21167 13.2692 2.21167C14.7987 2.21167 16.2362 2.50192 17.5815 3.08243C18.9268 3.66294 20.097 4.45077 21.0922 5.44592C22.0873 6.44108 22.8752 7.61131 23.4557 8.95661C24.0362 10.3019 24.3264 11.7394 24.3264 13.2689C24.3264 14.7985 24.0362 16.236 23.4557 17.5813C22.8752 18.9266 22.0873 20.0968 21.0922 21.092C20.097 22.0871 18.9268 22.875 17.5815 23.4555C16.2362 24.036 14.7987 24.3262 13.2692 24.3262Z" fill="white"/>
</g>
</g>
</svg>
