<svg width="67" height="67" viewBox="0 0 67 67" fill="none" xmlns="http://www.w3.org/2000/svg">
<g filter="url(#filter0_d_1168_891)">
<circle cx="33.5" cy="33.5" r="23.5" transform="rotate(-180 33.5 33.5)" fill="white"/>
<mask id="mask0_1168_891" style="mask-type:alpha" maskUnits="userSpaceOnUse" x="19" y="22" width="24" height="24">
<rect x="42.4424" y="45.3535" width="23.292" height="23.292" transform="rotate(-180 42.4424 45.3535)" fill="#D9D9D9"/>
</mask>
<g mask="url(#mask0_1168_891)">
<path d="M28.8332 33.7076L35.747 40.6213C36.0445 40.9188 36.1914 41.2768 36.1879 41.6952C36.1844 42.1137 36.0339 42.4716 35.7364 42.7691C35.439 43.0666 35.0787 43.2153 34.6557 43.2153C34.2327 43.2153 33.8724 43.0666 33.5749 42.7691L26.332 35.5294C26.0739 35.2713 25.8827 34.9844 25.7582 34.6686C25.6337 34.3528 25.5715 34.0325 25.5715 33.7076C25.5715 33.3827 25.6337 33.0623 25.7582 32.7466C25.8827 32.4308 26.0739 32.1438 26.332 31.8857L33.5855 24.6323C33.883 24.3348 34.2392 24.1901 34.6541 24.1982C35.069 24.2063 35.4252 24.3591 35.7227 24.6566C36.0202 24.9541 36.1689 25.3143 36.1689 25.7373C36.1689 26.1603 36.0202 26.5206 35.7227 26.8181L28.8332 33.7076Z" fill="#1C1B1F"/>
</g>
</g>
<defs>
<filter id="filter0_d_1168_891" x="0" y="0" width="67" height="67" filterUnits="userSpaceOnUse" color-interpolation-filters="sRGB">
<feFlood flood-opacity="0" result="BackgroundImageFix"/>
<feColorMatrix in="SourceAlpha" type="matrix" values="0 0 0 0 0 0 0 0 0 0 0 0 0 0 0 0 0 0 127 0" result="hardAlpha"/>
<feOffset/>
<feGaussianBlur stdDeviation="5"/>
<feComposite in2="hardAlpha" operator="out"/>
<feColorMatrix type="matrix" values="0 0 0 0 0 0 0 0 0 0 0 0 0 0 0 0 0 0 0.35 0"/>
<feBlend mode="normal" in2="BackgroundImageFix" result="effect1_dropShadow_1168_891"/>
<feBlend mode="normal" in="SourceGraphic" in2="effect1_dropShadow_1168_891" result="shape"/>
</filter>
</defs>
</svg>
