<svg width="192" height="27" viewBox="0 0 192 27" fill="none" xmlns="http://www.w3.org/2000/svg">
<path d="M81.8848 20.6767C79.2801 20.9549 76.4959 19.138 76.0275 16.53C75.5854 14.0698 75.7517 11.8444 77.7654 10.1405C79.14 8.97558 80.856 8.49745 82.502 8.7539C82.791 8.79736 84.7915 9.1364 86.1311 10.8446C88.1842 13.4613 87.672 18.0036 85.0411 19.8161C83.9423 20.5724 82.7122 20.6898 81.8848 20.6724V20.6767ZM81.5039 11.4575C79.604 11.5227 78.3083 13.2353 78.3214 15.2739C78.3301 16.8126 79.9718 18.16 81.5696 18.0992C83.5264 18.0253 84.8616 16.2823 84.8134 14.2654C84.7784 12.6702 83.1806 11.3662 81.5039 11.4575Z" fill="white"/>
<path d="M90.6313 9.15814C90.7276 9.91445 90.8064 10.5664 90.8896 11.2271C91.6513 11.1793 92.3999 11.1619 93.1441 11.0837C94.0021 10.9968 94.094 11.0446 94.221 11.8574C94.3873 12.9238 93.9146 13.4917 92.8026 13.5613C92.2379 13.5961 91.6776 13.6308 91.0122 13.67C91.1172 15.3912 91.2311 17.0256 91.3142 18.6642C91.3536 19.464 91.358 20.2638 91.3055 21.0636C91.2923 21.2592 91.0209 21.5461 90.8196 21.5939C90.3906 21.7026 89.9265 21.6852 89.48 21.7156C89.0948 21.7373 88.9284 21.5765 88.9372 21.1723C88.9503 20.2769 88.9591 19.3814 88.9109 18.4904C88.7183 14.9174 88.5213 11.3445 88.2761 7.7759C88.2324 7.11087 88.4294 6.90657 89.0729 6.88049C90.5832 6.81964 92.0935 6.70663 93.6081 6.61535C94.2779 6.57623 94.5099 6.90657 94.5318 7.54988C94.5624 8.63654 94.5012 8.87126 93.7176 8.96254C92.7326 9.0799 91.7345 9.09728 90.6357 9.16248L90.6313 9.15814Z" fill="white"/>
<path d="M19.893 18.5165C19.5822 20.7637 19.2933 22.9109 18.9912 25.0582C18.7461 26.7925 18.3346 27.075 16.5923 26.7186C14.7274 26.3361 14.7974 26.3448 15.0295 24.4322C15.5985 19.7248 16.0845 15.0087 16.6273 10.297C16.9687 7.34993 17.3146 4.40291 17.7436 1.46892C17.8049 1.05599 18.3171 0.438767 18.6804 0.390954C20.252 0.186662 21.8498 0.0866892 23.4389 0.117116C23.7891 0.121462 24.3276 0.764766 24.4326 1.19508C24.9142 3.19454 25.2688 5.22877 25.6846 7.24561C26.6258 11.8531 27.5889 16.4562 28.517 21.0636C28.8234 22.5893 29.0292 24.1367 29.3531 25.6537C29.5151 26.41 29.1999 26.6621 28.5476 26.7055C27.8953 26.749 27.2343 26.7838 26.5821 26.762C25.7547 26.7273 25.3038 26.3274 25.1462 25.445C24.7785 23.3804 24.2619 21.3418 23.8942 19.2771C23.7541 18.473 23.3908 18.26 22.6509 18.3339C21.7842 18.4208 20.9086 18.4556 19.893 18.5208V18.5165Z" fill="white"/>
<path d="M42.2102 6.83703C42.0132 7.41948 41.9301 8.41486 41.6017 8.50179C40.735 8.73216 39.7588 8.59307 38.8351 8.52353C38.7212 8.51483 38.5768 8.07148 38.5505 7.81502C38.4936 7.27604 38.5855 6.71532 38.4717 6.19372C38.2791 5.33309 37.6619 4.92885 36.7688 5.02013C35.9196 5.10272 35.4687 5.58085 35.4161 6.44148C35.3417 7.7107 35.8057 8.77563 36.6025 9.72755C37.8851 11.2576 39.1765 12.7832 40.4548 14.3176C41.79 15.9215 42.6524 17.721 42.718 19.8422C42.7881 22.1285 41.558 24.015 39.3297 24.567C37.0446 25.1321 34.8033 24.8321 33.0303 23.1065C31.4018 21.52 31.3756 19.4858 31.7783 17.4255C31.8352 17.1299 32.308 16.6735 32.5532 16.6952C33.4156 16.7691 34.2692 16.9821 35.0966 17.2385C35.2673 17.2907 35.3811 17.7601 35.3986 18.0427C35.4424 18.7251 35.3505 19.4206 35.4336 20.0943C35.5606 21.1158 36.2041 21.5982 37.2416 21.5852C38.1916 21.5765 39.0058 20.9462 38.9576 19.99C38.9139 19.1641 38.6994 18.2426 38.2572 17.5559C37.1541 15.8563 35.8408 14.2872 34.6807 12.6224C33.4462 10.849 31.949 9.2016 31.717 6.90657C31.3887 3.66832 32.5313 2.17742 35.7882 1.91663C36.922 1.82535 38.1522 1.96879 39.2247 2.3339C41.2778 3.02937 42.0833 4.6724 42.2059 6.82833L42.2102 6.83703Z" fill="white"/>
<path d="M8.75629 3.78134C8.69501 5.13749 8.59432 6.38932 8.58557 7.6455C8.55054 13.6091 8.52428 19.577 8.52866 25.5406C8.52866 26.3926 8.29226 26.7664 7.38172 26.8316C4.95212 27.0011 4.65882 26.8229 4.61942 24.4279C4.51874 17.9557 4.46183 11.4836 4.38741 5.00709C4.38303 4.61589 4.38741 4.22904 4.38741 3.76395C3.1748 3.70744 2.06288 3.65528 0.946582 3.60312C0.228649 3.56835 -0.0427651 3.2467 0.00538896 2.49038C0.158606 0.0779956 0.162984 0.0214895 2.6276 0.051916C5.64817 0.0866892 8.66874 0.164929 11.6893 0.225782C12.5561 0.243168 13.1733 0.48658 13.0989 1.55151C13.007 2.92939 12.4335 3.77264 11.4179 3.81611C10.9845 3.8335 10.5468 3.78568 10.109 3.77699C9.67998 3.7683 9.25535 3.77699 8.75629 3.77699V3.78134Z" fill="white"/>
<path d="M48.9343 3.61182C47.7479 3.61182 46.6579 3.62051 45.5723 3.61182C44.8587 3.60312 44.4954 3.29451 44.6179 2.52516C44.688 2.09919 44.6748 1.66017 44.6924 1.22551C44.7186 0.47354 45.1257 0.0693026 45.8612 0.0823425C49.3589 0.125809 52.8567 0.186662 56.3588 0.247515C57.1511 0.260555 57.6808 0.51266 57.6545 1.45154C57.6195 2.74249 57.0723 3.74656 56.2099 3.81176C55.5577 3.85958 54.8966 3.8248 54.2444 3.77264C53.5221 3.71614 53.1981 3.91174 53.2025 4.71587C53.22 9.53195 53.1937 14.348 53.1718 19.1685C53.1631 21.307 53.1106 23.4412 53.1281 25.5798C53.1324 26.4491 52.8041 26.7838 51.9198 26.8446C49.4246 27.0098 49.267 26.9359 49.232 24.5061C49.1357 17.9557 49.0744 11.4053 48.9956 4.85496C48.9956 4.53331 48.9649 4.21165 48.9387 3.62486L48.9343 3.61182Z" fill="white"/>
<path d="M59.5982 16.7083C59.5982 16.0606 59.5982 15.413 59.5982 14.7653C59.5895 10.4839 59.5413 6.20242 59.4581 1.92097C59.4406 0.947325 59.6376 0.104076 60.7933 0.0997291C61.4456 0.0997291 62.5619 0.0388761 62.9077 0.716953C63.1704 1.22986 63.0347 1.86447 63.0478 2.41649C63.0609 2.98155 63.0609 3.54662 63.0609 4.11168C63.0609 5.19834 63.039 6.28935 63.039 7.37601C63.039 9.49717 63.039 11.6183 63.0478 13.7395V13.8047C63.0697 17.7471 63.096 21.6939 63.1266 25.6363C63.1354 26.5273 62.7151 26.8751 61.8877 26.8968C61.7433 26.8968 61.5944 26.9098 61.45 26.9142C61.0297 26.9229 60.233 27.0707 59.8784 26.7577C59.3312 26.2752 59.5501 25.1451 59.5588 24.5192C59.572 23.4369 59.5807 22.3545 59.5851 21.2722C59.5938 19.7553 59.5982 18.2383 59.5982 16.7213V16.7083Z" fill="white"/>
<path d="M66.7382 26.8099C66.0377 26.7968 65.3373 26.7316 64.7026 26.5534C64.3305 26.4491 63.9496 26.2752 63.7526 25.9449C63.5819 25.658 63.5819 25.3016 63.595 24.9669C63.6038 24.6148 63.6213 24.254 63.7307 23.9193C63.8664 23.5108 64.1641 23.1196 64.6194 23.0674C65.9546 22.9153 67.3072 22.8979 68.6556 22.8631C69.5792 22.8414 70.0914 23.2847 70.0608 24.2453C70.0608 24.2801 70.0608 24.3192 70.0652 24.354C70.144 25.6928 70.0564 26.6838 68.4761 26.7664C67.9245 26.7968 67.3291 26.8229 66.7382 26.8099Z" fill="white"/>
<path d="M66.6637 4.1508C66.0202 4.12038 65.3767 4.10299 64.7419 3.98563C64.4005 3.92043 64.059 3.78134 63.8445 3.5075C63.5862 3.17281 63.5775 2.71206 63.595 2.29044C63.6213 1.6906 63.7132 1.01687 64.1991 0.6561C64.7419 0.251862 65.5562 0.399648 66.1866 0.382261C67.0096 0.360528 67.8282 0.338795 68.6512 0.312715C69.159 0.299675 69.7631 0.430074 69.9251 0.960365C70.1264 1.61671 70.1527 2.35129 70.0783 3.02937C70.052 3.27713 70.0039 3.53792 69.8419 3.72918C69.6537 3.95086 69.3472 4.03779 69.0583 4.0856C68.3097 4.216 67.548 4.19427 66.7951 4.1508C66.7513 4.1508 66.7075 4.14645 66.6637 4.14211V4.1508Z" fill="white"/>
<path d="M66.9133 11.6314C69.5223 11.6618 69.3735 11.1924 69.3035 14.2089C69.2903 14.8435 69.1152 15.4564 68.3754 15.4869C67.3291 15.5303 66.3004 15.3217 65.2629 15.2434C64.9127 15.2174 64.545 15.1391 64.2867 14.9001C64.0678 14.6914 63.9627 14.3958 63.8839 14.1046C63.6913 13.3961 63.4812 12.1269 64.3611 11.7705C65.1228 11.4619 66.1209 11.6183 66.9176 11.6314H66.9133Z" fill="white"/>
<path d="M185.258 8.87126C185.889 7.28038 188.012 2.06007 189.872 0.569167C190.153 0.343141 190.792 -0.0915232 191.339 0.0171429C191.645 0.0779959 192 0.843005 192 1.29071C191.982 5.01578 191.891 8.74086 191.816 12.4659C191.729 16.7735 191.624 21.0766 191.558 25.3842C191.54 26.6447 191.339 26.9576 190.061 26.9576C189.658 26.9576 188.17 26.9229 185.193 26.9316C183.464 26.9316 181.73 26.862 180.001 26.8968C179.848 26.8968 179.406 26.9098 179.117 26.6229C178.924 26.4274 178.841 26.1274 178.85 25.7058C178.937 18.5034 179.003 11.3054 179.09 4.10299C179.099 3.27278 179.125 2.43388 179.27 1.61671C179.344 1.20378 179.624 0.634366 179.953 0.517007C180.417 0.351834 180.955 0.760419 181.183 0.934285C182.794 2.16438 184.838 7.70201 185.263 8.86691L185.258 8.87126Z" fill="white"/>
<path d="M171.123 18.3774C169.945 18.4513 168.89 18.46 167.857 18.6251C167.595 18.6642 167.271 19.1685 167.218 19.4988C166.881 21.533 166.592 23.5716 166.334 25.6189C166.203 26.6708 165.651 27.0663 164.635 26.9011C164.206 26.8316 163.777 26.7012 163.348 26.6838C162.429 26.6534 162.206 26.2578 162.324 25.3537C162.876 21.1244 163.366 16.8865 163.86 12.6485C164.272 9.09294 164.679 5.53303 165.042 1.97313C165.143 1.00383 165.537 0.395301 166.54 0.334448C167.984 0.247515 169.433 0.134502 170.873 0.204049C171.228 0.221435 171.749 0.847352 171.858 1.27767C172.301 2.99025 172.616 4.73325 172.97 6.46756C173.925 11.1402 174.883 15.8128 175.825 20.4855C176.166 22.185 176.442 23.902 176.792 25.5971C176.95 26.3708 176.722 26.7751 175.908 26.8142C175.763 26.8229 175.619 26.849 175.474 26.8577C173.172 27.0359 172.909 26.849 172.432 24.6061C172.003 22.5936 171.591 20.5768 171.132 18.3774H171.123Z" fill="white"/>
<path d="M156.48 15.4347C156.48 14.9479 156.484 14.4654 156.48 13.9786C156.432 10.4665 156.401 6.95439 156.318 3.4423C156.296 2.55124 156.576 2.05572 157.513 2.03399C157.622 2.03399 157.727 1.99052 157.837 1.97313C160.183 1.6254 160.42 1.93836 160.35 4.27251C160.183 9.99269 160.122 15.7172 160.021 21.4374C160.008 22.2328 159.973 23.0326 160.004 23.8281C160.034 24.5844 159.64 24.8669 158.958 24.9104C158.774 24.9234 158.594 24.9408 158.41 24.9451C155.687 25.0408 155.464 24.8582 154.773 22.3241C153.906 19.1511 153 15.9911 152.102 12.831C152.054 12.6659 151.949 12.5137 151.638 12.3573C151.638 12.7528 151.629 13.1484 151.638 13.5396C151.717 16.7256 151.804 19.9117 151.87 23.1022C151.905 24.8582 151.638 25.1147 149.856 25.0886C149.388 25.0799 148.915 25.0103 148.451 24.9191C147.843 24.8017 147.541 24.4627 147.541 23.7846C147.549 17.0516 147.523 10.3143 147.519 3.58139C147.519 2.35998 147.83 2.06007 149.055 1.96009C149.09 1.96009 149.13 1.96009 149.165 1.96009C152.238 2.01225 152.006 1.46458 152.798 4.60285C153.652 7.96281 154.794 11.2532 155.823 14.5697C155.924 14.887 156.095 15.1869 156.23 15.4955C156.309 15.4782 156.388 15.4608 156.471 15.4434L156.48 15.4347Z" fill="white"/>
<path d="M104.727 9.14944C105.612 7.30647 106.47 5.4461 107.433 3.64224C107.831 2.89897 108.89 0.234475 109.932 0.138849C110.506 0.0866892 110.716 0.334448 110.716 0.334448C110.825 0.456154 110.865 0.6561 110.812 0.982098C110.029 5.50695 109.333 10.0492 108.496 14.5654C108.037 17.0343 107.424 19.4771 107.012 21.9547C106.824 23.0935 106.693 24.2584 106.242 25.319C106.019 25.8492 105.699 26.3665 105.196 26.6577C105.073 26.7273 104.937 26.7838 104.802 26.7751C104.548 26.7577 104.364 26.5273 104.233 26.31C103.572 25.2277 103.287 23.9628 103.09 22.711C102.306 17.7384 100.928 12.8571 99.7675 7.95846C99.6361 7.40644 99.5048 6.85007 99.3735 6.29804C98.9839 4.64197 98.6555 2.97721 98.3009 1.31244C98.2178 0.916898 98.2265 0.60394 98.3973 0.403994C98.3973 0.403994 98.6293 0.130156 99.2159 0.151889C100.323 0.191009 101.422 2.6599 101.869 3.43361C102.928 5.27658 103.913 7.18911 104.732 9.14944H104.727Z" fill="white"/>
<path d="M136.763 3.7031C135.625 3.7031 134.539 3.71614 133.458 3.69875C132.705 3.68571 132.376 3.36841 132.46 2.5382C132.696 0.143196 132.665 0.117116 135.113 0.143196C138.133 0.177969 141.154 0.260555 144.174 0.321408C145.076 0.338795 145.61 0.647406 145.531 1.68625C145.426 3.02067 144.892 3.86392 143.933 3.90739C143.067 3.94651 142.191 3.91608 141.062 3.91608C141.062 5.27658 141.07 6.62839 141.062 7.98454C141.027 13.9525 140.983 19.9161 140.961 25.884C140.961 26.5664 140.694 26.8272 140.015 26.9055C137.459 27.1967 137.104 26.9446 137.065 24.2714C136.964 17.834 136.912 11.401 136.833 4.96362C136.833 4.61155 136.798 4.25947 136.767 3.70744L136.763 3.7031Z" fill="white"/>
<path d="M120.259 16.6735C120.259 16.0258 120.259 15.3782 120.259 14.7305C120.25 10.4491 120.202 6.16764 120.119 1.8862C120.102 0.912552 120.299 0.0693026 121.454 0.064956C122.107 0.064956 123.223 0.00410292 123.569 0.682179C123.831 1.19508 123.696 1.82969 123.709 2.38172C123.722 2.94678 123.722 3.51184 123.722 4.07691C123.722 5.16357 123.7 6.25458 123.7 7.34124C123.7 9.4624 123.7 11.5836 123.709 13.7047V13.7699C123.731 17.7123 123.757 21.6591 123.788 25.6015C123.796 26.4926 123.376 26.8403 122.549 26.862C122.404 26.862 122.255 26.8751 122.111 26.8794C121.691 26.8881 120.894 27.0359 120.539 26.7229C119.992 26.2404 120.211 25.1103 120.22 24.4844C120.233 23.4021 120.242 22.3198 120.246 21.2375C120.255 19.7205 120.259 18.2035 120.259 16.6865V16.6735Z" fill="white"/>
<path d="M117.12 15.8085C117.247 18.2122 117.339 20.6246 117.204 23.0326C117.177 23.4934 117.134 23.9845 116.858 24.3584C116.429 24.9365 115.61 25.0321 114.888 25.0408C114.503 25.0451 114.095 25.0364 113.763 24.8321C113.119 24.4409 113.062 23.5499 113.08 22.8023C113.185 18.2209 113.29 13.6439 113.373 9.06251C113.399 7.51945 113.518 7.3847 115.059 7.3847C115.347 7.3847 115.641 7.41513 115.93 7.41948C116.818 7.43686 117.173 7.80198 117.142 8.75824C117.068 11.0663 116.998 13.4265 117.116 15.7259C117.116 15.752 117.116 15.7824 117.116 15.8085H117.12Z" fill="white"/>
<path d="M127.399 26.7751C126.699 26.762 125.998 26.6968 125.364 26.5186C124.991 26.4143 124.611 26.2404 124.414 25.9101C124.243 25.6232 124.243 25.2668 124.256 24.9321C124.265 24.58 124.282 24.2193 124.392 23.8846C124.527 23.476 124.825 23.0848 125.28 23.0326C126.616 22.8805 127.968 22.8631 129.317 22.8283C130.24 22.8066 130.752 23.25 130.722 24.2106C130.722 24.2453 130.722 24.2845 130.726 24.3192C130.805 25.658 130.717 26.649 129.137 26.7316C128.585 26.762 127.99 26.7881 127.399 26.7751Z" fill="white"/>
<path d="M127.325 4.11603C126.681 4.0856 126.038 4.06821 125.403 3.95086C125.061 3.88566 124.72 3.74656 124.506 3.47272C124.247 3.13803 124.238 2.67729 124.256 2.25566C124.282 1.65583 124.374 0.982098 124.86 0.621326C125.403 0.217088 126.217 0.364874 126.848 0.347488C127.671 0.325755 128.489 0.304021 129.312 0.277941C129.82 0.264902 130.424 0.395301 130.586 0.925591C130.787 1.58193 130.814 2.31652 130.739 2.99459C130.713 3.24235 130.665 3.50315 130.503 3.6944C130.315 3.91608 130.008 4.00302 129.719 4.05083C128.971 4.18123 128.209 4.15949 127.456 4.11603C127.412 4.11603 127.368 4.11168 127.325 4.10733V4.11603Z" fill="white"/>
<path d="M127.579 11.5966C130.188 11.627 130.039 11.1576 129.969 14.1742C129.956 14.8088 129.781 15.4216 129.041 15.4521C127.994 15.4955 126.966 15.2869 125.928 15.2087C125.578 15.1826 125.21 15.1043 124.952 14.8653C124.733 14.6566 124.628 14.3611 124.549 14.0698C124.357 13.3613 124.147 12.0921 125.026 11.7357C125.788 11.4271 126.786 11.5836 127.583 11.5966H127.579Z" fill="white"/>
<path d="M115.514 2.10788C116.7 2.09484 117.436 2.87289 117.475 4.19861C117.514 5.5113 116.678 6.37194 115.343 6.38932C114.095 6.40671 113.128 5.52869 113.119 4.37248C113.111 3.09891 114.139 2.12527 115.509 2.10788H115.514Z" fill="white"/>
</svg>
