<?xml version="1.0" encoding="UTF-8"?><svg id="Layer_2" xmlns="http://www.w3.org/2000/svg" viewBox="0 0 217.98 135.45"><defs><style>.cls-1{fill:#fff;stroke-width:0px;}</style></defs><g id="Layer_1-2"><path class="cls-1" d="m202.58,93.75c1.44-3.66,6.29-15.67,10.54-19.1.64-.52,2.1-1.52,3.35-1.27.7.14,1.51,1.9,1.51,2.93-.04,8.57-.25,17.14-.42,25.71-.2,9.91-.44,19.81-.59,29.72-.04,2.9-.5,3.62-3.42,3.62-.92,0-4.32-.08-11.12-.06-3.95,0-7.91-.16-11.86-.08-.35,0-1.36.03-2.02-.63-.44-.45-.63-1.14-.61-2.11.2-16.57.35-33.13.55-49.7.02-1.91.08-3.84.41-5.72.17-.95.81-2.26,1.56-2.53,1.06-.38,2.29.56,2.81.96,3.68,2.83,8.35,15.57,9.32,18.25Z"/><path class="cls-1" d="m170.28,115.62c-2.69.17-5.1.19-7.46.57-.6.09-1.34,1.25-1.46,2.01-.77,4.68-1.43,9.37-2.02,14.08-.3,2.42-1.56,3.33-3.88,2.95-.98-.16-1.96-.46-2.94-.5-2.1-.07-2.61-.98-2.34-3.06,1.26-9.73,2.38-19.48,3.51-29.23.94-8.18,1.87-16.37,2.7-24.56.23-2.23,1.13-3.63,3.42-3.77,3.3-.2,6.61-.46,9.9-.3.81.04,2,1.48,2.25,2.47,1.01,3.94,1.73,7.95,2.54,11.94,2.18,10.75,4.37,21.5,6.52,32.25.78,3.91,1.41,7.86,2.21,11.76.36,1.78-.16,2.71-2.02,2.8-.33.02-.66.08-.99.1-5.26.41-5.86-.02-6.95-5.18-.98-4.63-1.92-9.27-2.97-14.33Z"/><path class="cls-1" d="m136.83,108.85c0-1.12.01-2.23,0-3.35-.11-8.08-.18-16.16-.37-24.24-.05-2.05.59-3.19,2.73-3.24.25,0,.49-.1.74-.14,5.36-.8,5.9-.08,5.74,5.29-.38,13.16-.52,26.33-.75,39.49-.03,1.83-.11,3.67-.04,5.5.07,1.74-.83,2.39-2.39,2.49-.42.03-.83.07-1.25.08-6.22.22-6.73-.2-8.31-6.03-1.98-7.3-4.05-14.57-6.1-21.84-.11-.38-.35-.73-1.06-1.09,0,.91-.02,1.82,0,2.72.18,7.33.38,14.66.53,22,.08,4.04-.53,4.63-4.6,4.57-1.07-.02-2.15-.18-3.21-.39-1.39-.27-2.08-1.05-2.08-2.61.02-15.49-.04-30.99-.05-46.48,0-2.81.71-3.5,3.51-3.73.08,0,.17,0,.25,0,7.02.12,6.49-1.14,8.3,6.08,1.95,7.73,4.56,15.3,6.91,22.93.23.73.62,1.42.93,2.13.18-.04.36-.08.55-.12Z"/><path class="cls-1" d="m18.62,94.39c2.02-4.24,3.98-8.52,6.18-12.67.91-1.71,3.33-7.84,5.71-8.06,1.31-.12,1.79.45,1.79.45.25.28.34.74.22,1.49-1.79,10.41-3.38,20.86-5.29,31.25-1.05,5.68-2.45,11.3-3.39,17-.43,2.62-.73,5.3-1.76,7.74-.51,1.22-1.24,2.41-2.39,3.08-.28.16-.59.29-.9.27-.58-.04-1-.57-1.3-1.07-1.51-2.49-2.16-5.4-2.61-8.28-1.79-11.44-4.94-22.67-7.59-33.94-.3-1.27-.6-2.55-.9-3.82-.89-3.81-1.64-7.64-2.45-11.47-.19-.91-.17-1.63.22-2.09,0,0,.53-.63,1.87-.58,2.53.09,5.04,5.77,6.06,7.55,2.42,4.24,4.67,8.64,6.54,13.15Z"/><path class="cls-1" d="m186.67,47.68c-6.26.89-13.12-3.3-14.46-9.6-1.26-5.94-1.05-11.36,3.67-15.66,3.22-2.94,7.33-4.24,11.31-3.75.7.09,5.56.74,8.93,4.79,5.17,6.19,4.3,17.27-1.9,21.89-2.59,1.93-5.55,2.31-7.55,2.34Zm-1.67-22.37c-4.58.31-7.56,4.58-7.36,9.53.15,3.74,4.22,6.88,8.06,6.6,4.72-.34,7.79-4.68,7.52-9.58-.22-3.87-4.17-6.91-8.22-6.55Z"/><path class="cls-1" d="m91.8,81.86c-2.6,0-5.08.03-7.55-.01-1.72-.03-2.47-.76-2.28-2.67.54-5.51.47-5.57,6.06-5.51,6.9.08,13.8.27,20.7.41,2.06.04,3.28.75,3.1,3.14-.24,3.07-1.46,5.01-3.65,5.11-1.98.09-3.98.02-6.56.02,0,3.13.02,6.24,0,9.36-.08,13.73-.18,27.45-.23,41.18,0,1.57-.61,2.17-2.16,2.35-5.84.67-6.65.09-6.74-6.06-.23-14.81-.35-29.61-.53-44.42,0-.81-.08-1.62-.15-2.89Z"/><path class="cls-1" d="m206.83,18.99c.29,1.83.54,3.4.79,5,1.83-.17,3.64-.29,5.43-.53,2.06-.28,2.29-.18,2.66,1.79q.74,3.87-3.28,4.25c-1.36.13-2.71.26-4.31.41.39,4.17.8,8.14,1.13,12.11.16,1.94.24,3.89.18,5.83-.01.47-.65,1.19-1.13,1.33-1.03.3-2.14.3-3.23.4-.92.09-1.34-.29-1.35-1.27-.04-2.17-.09-4.35-.28-6.52-.76-8.66-1.53-17.33-2.4-25.98-.16-1.62.3-2.12,1.84-2.24,3.64-.27,7.28-.67,10.92-1.02,1.62-.15,2.2.63,2.3,2.2.17,2.64.03,3.21-1.84,3.49-2.37.36-4.77.48-7.42.73Z"/><path class="cls-1" d="m54.1,111.7c0-1.49,0-2.98,0-4.47-.02-9.85-.13-19.7-.32-29.55-.04-2.24.41-4.18,3.05-4.19,1.49,0,4.04-.14,4.83,1.42.6,1.18.29,2.64.32,3.91.03,1.3.03,2.6.03,3.9,0,2.5-.05,5.01-.05,7.51,0,4.88,0,9.76.02,14.64v.15c.05,9.07.11,18.15.18,27.22.02,2.05-.94,2.85-2.83,2.9-.33,0-.67.03-1,.04-.96.02-2.78.36-3.59-.36-1.25-1.11-.75-3.71-.73-5.15.03-2.49.05-4.98.06-7.47.02-3.49.03-6.98.03-10.47Z"/><path class="cls-1" d="m46.93,109.71c.29,5.53.5,11.08.19,16.62-.06,1.06-.16,2.19-.79,3.05-.98,1.33-2.85,1.55-4.5,1.57-.88.01-1.81-.01-2.57-.48-1.47-.9-1.6-2.95-1.56-4.67.24-10.54.48-21.07.67-31.61.06-3.55.33-3.86,3.85-3.86.66,0,1.33.07,1.99.08,2.03.04,2.84.88,2.77,3.08-.17,5.31-.33,10.74-.06,16.03,0,.06,0,.13,0,.19Z"/><path class="cls-1" d="m70.41,134.94c-1.6-.03-3.2-.18-4.65-.59-.85-.24-1.72-.64-2.17-1.4-.39-.66-.39-1.48-.36-2.25.02-.81.06-1.64.31-2.41.31-.94.99-1.84,2.03-1.96,3.05-.35,6.14-.39,9.22-.47,2.11-.05,3.28.97,3.21,3.18,0,.08,0,.17.01.25.18,3.08-.02,5.36-3.63,5.55-1.26.07-2.62.13-3.97.1Z"/><path class="cls-1" d="m70.24,82.81c-1.47-.07-2.94-.11-4.39-.38-.78-.15-1.56-.47-2.05-1.1-.59-.77-.61-1.83-.57-2.8.06-1.38.27-2.93,1.38-3.76,1.24-.93,3.1-.59,4.54-.63,1.88-.05,3.75-.1,5.63-.16,1.16-.03,2.54.27,2.91,1.49.46,1.51.52,3.2.35,4.76-.06.57-.17,1.17-.54,1.61-.43.51-1.13.71-1.79.82-1.71.3-3.45.25-5.17.15-.1,0-.2-.01-.3-.02Z"/><path class="cls-1" d="m45.44,42.49c-.71,5.17-1.37,10.11-2.06,15.05-.56,3.99-1.5,4.64-5.48,3.82-4.26-.88-4.1-.86-3.57-5.26,1.3-10.83,2.41-21.68,3.65-32.52.78-6.78,1.57-13.56,2.55-20.31.14-.95,1.31-2.37,2.14-2.48,3.59-.47,7.24-.7,10.87-.63.8.01,2.03,1.49,2.27,2.48,1.1,4.6,1.91,9.28,2.86,13.92,2.15,10.6,4.35,21.19,6.47,31.79.7,3.51,1.17,7.07,1.91,10.56.37,1.74-.35,2.32-1.84,2.42-1.49.1-3,.18-4.49.13-1.89-.08-2.92-1-3.28-3.03-.84-4.75-2.02-9.44-2.86-14.19-.32-1.85-1.15-2.34-2.84-2.17-1.98.2-3.98.28-6.3.43Z"/><path class="cls-1" d="m96.42,15.62c-.45,1.34-.64,3.63-1.39,3.83-1.98.53-4.21.21-6.32.05-.26-.02-.59-1.04-.65-1.63-.13-1.24.08-2.53-.18-3.73-.44-1.98-1.85-2.91-3.89-2.7-1.94.19-2.97,1.29-3.09,3.27-.17,2.92.89,5.37,2.71,7.56,2.93,3.52,5.88,7.03,8.8,10.56,3.05,3.69,5.02,7.83,5.17,12.71.16,5.26-2.65,9.6-7.74,10.87-5.22,1.3-10.34.61-14.39-3.36-3.72-3.65-3.78-8.33-2.86-13.07.13-.68,1.21-1.73,1.77-1.68,1.97.17,3.92.66,5.81,1.25.39.12.65,1.2.69,1.85.1,1.57-.11,3.17.08,4.72.29,2.35,1.76,3.46,4.13,3.43,2.17-.02,4.03-1.47,3.92-3.67-.1-1.9-.59-4.02-1.6-5.6-2.52-3.91-5.52-7.52-8.17-11.35-2.82-4.08-6.24-7.87-6.77-13.15-.75-7.45,1.86-10.88,9.3-11.48,2.59-.21,5.4.12,7.85.96,4.69,1.6,6.53,5.38,6.81,10.34Z"/><path class="cls-1" d="m20,8.59c-.14,3.12-.37,6-.39,8.89-.08,13.72-.14,27.45-.13,41.17,0,1.96-.54,2.82-2.62,2.97-5.55.39-6.22-.02-6.31-5.53-.23-14.89-.36-29.78-.53-44.68-.01-.9,0-1.79,0-2.86-2.77-.13-5.31-.25-7.86-.37C.52,8.1-.1,7.36.01,5.62.36.07.37-.06,6,0c6.9.08,13.8.26,20.7.4,1.98.04,3.39.6,3.22,3.05-.21,3.17-1.52,5.11-3.84,5.21-.99.04-1.99-.07-2.99-.09-.98-.02-1.95,0-3.09,0Z"/><path class="cls-1" d="m111.78,8.2c-2.71,0-5.2.02-7.68,0-1.63-.02-2.46-.73-2.18-2.5.16-.98.13-1.99.17-2.99.06-1.73.99-2.66,2.67-2.63,7.99.1,15.98.24,23.98.38,1.81.03,3.02.61,2.96,2.77-.08,2.97-1.33,5.28-3.3,5.43-1.49.11-3,.03-4.49-.09-1.65-.13-2.39.32-2.38,2.17.04,11.08-.02,22.16-.07,33.25-.02,4.92-.14,9.83-.1,14.75.01,2-.74,2.77-2.76,2.91-5.7.38-6.06.21-6.14-5.38-.22-15.07-.36-30.14-.54-45.21,0-.74-.07-1.48-.13-2.83Z"/><path class="cls-1" d="m70.81,100.02c5.96.07,5.62-1.01,5.46,5.93-.03,1.46-.43,2.87-2.12,2.94-2.39.1-4.74-.38-7.11-.56-.8-.06-1.64-.24-2.23-.79-.5-.48-.74-1.16-.92-1.83-.44-1.63-.92-4.55,1.09-5.37,1.74-.71,4.02-.35,5.84-.32Z"/><path class="cls-1" d="m136.14,38.34c0-1.49,0-2.98,0-4.47-.02-9.85-.13-19.7-.32-29.55-.04-2.24.41-4.18,3.05-4.19,1.49,0,4.04-.14,4.83,1.42.6,1.18.29,2.64.32,3.91.03,1.3.03,2.6.03,3.9,0,2.5-.05,5.01-.05,7.51,0,4.88,0,9.76.02,14.64v.15c.05,9.07.11,18.15.18,27.22.02,2.05-.94,2.85-2.83,2.9-.33,0-.67.03-1,.04-.96.02-2.78.36-3.59-.36-1.25-1.11-.75-3.71-.73-5.15.03-2.49.05-4.98.06-7.47.02-3.49.03-6.98.03-10.47Z"/><path class="cls-1" d="m152.45,61.57c-1.6-.03-3.2-.18-4.65-.59-.85-.24-1.72-.64-2.17-1.4-.39-.66-.39-1.48-.36-2.25.02-.81.06-1.64.31-2.41.31-.94.99-1.84,2.03-1.96,3.05-.35,6.14-.39,9.22-.47,2.11-.05,3.28.97,3.21,3.18,0,.08,0,.17.01.25.18,3.08-.02,5.36-3.63,5.55-1.26.07-2.62.13-3.97.1Z"/><path class="cls-1" d="m152.28,9.45c-1.47-.07-2.94-.11-4.39-.38-.78-.15-1.56-.47-2.05-1.1-.59-.77-.61-1.83-.57-2.8.06-1.38.27-2.93,1.38-3.76,1.24-.93,3.1-.59,4.54-.63,1.88-.05,3.75-.1,5.63-.16,1.16-.03,2.54.27,2.91,1.49.46,1.51.52,3.2.35,4.76-.06.57-.17,1.17-.54,1.61-.43.51-1.13.71-1.79.82-1.71.3-3.45.25-5.17.15-.1,0-.2-.01-.3-.02Z"/><path class="cls-1" d="m152.85,26.65c5.96.07,5.62-1.01,5.46,5.93-.03,1.46-.43,2.87-2.12,2.94-2.39.1-4.74-.38-7.11-.56-.8-.06-1.64-.24-2.23-.79-.5-.48-.74-1.16-.92-1.83-.44-1.63-.92-4.55,1.09-5.37,1.74-.71,4.02-.35,5.84-.32Z"/><path class="cls-1" d="m43.25,78.19c2.71-.03,4.39,1.76,4.48,4.81.09,3.02-1.82,5-4.87,5.04-2.85.04-5.06-1.98-5.08-4.64-.02-2.93,2.33-5.17,5.46-5.21Z"/></g></svg>