<svg width="62" height="68" viewBox="0 0 62 68" fill="none" xmlns="http://www.w3.org/2000/svg">
<g id="Vector">
<path d="M35.0339 59.1237L34.9763 59.1382C35.0489 59.9354 35.3988 60.5503 35.9088 60.9516C36.4109 61.3467 37.039 61.5121 37.6415 61.4755C38.244 61.4389 38.847 61.1988 39.298 60.749C39.7562 60.292 40.0321 59.6434 40.0101 58.8493L40.0099 58.8418L40.0095 58.8343L38.2083 27.6632C38.2082 27.6623 38.2082 27.6613 38.2081 27.6603C38.1311 26.0725 36.5369 24.9256 35.0036 25.3768C35.0025 25.3772 35.0014 25.3775 35.0003 25.3778L23.2747 28.6806L19.4971 2.61436L19.4968 2.61222C19.3664 1.73938 18.5752 1.09685 17.6785 1.17688L35.0339 59.1237ZM35.0339 59.1237L34.9773 59.1269L33.3567 31.0816C32.1082 31.4333 30.6019 31.8579 29.0959 32.2825L28.048 32.5779C24.992 33.4395 22.163 34.237 21.8301 34.3283L21.8302 34.3286C20.3486 34.7633 18.8087 33.6914 18.6888 32.1603C18.6888 32.1594 18.6887 32.1585 18.6886 32.1576M35.0339 59.1237L18.6886 32.1576M18.6886 32.1576L16.1454 3.00325L16.1453 3.00185C16.0671 2.07525 16.748 1.2598 17.6783 1.1769L18.6886 32.1576ZM57.0943 13.8437L57.2666 13.3744C56.391 13.0529 55.4232 13.5055 55.1031 14.3778L55.1026 14.379L47.7394 34.6C47.7393 34.6003 47.7392 34.6006 47.7391 34.6009C47.3282 35.7184 47.8029 37.0061 48.8885 37.5795L55.2508 41.2255L45.9258 58.1375L45.8083 58.3507L45.8191 58.376C45.5535 59.0131 45.5486 59.6381 45.7444 60.1863C45.9592 60.7876 46.4029 61.2621 46.9325 61.5522C47.462 61.8423 48.1005 61.9607 48.7222 61.8203C49.3539 61.6777 49.9332 61.2754 50.3378 60.5906L50.3416 60.5842L50.3452 60.5777L60.8669 41.4954L60.8677 41.494C61.5246 40.2937 61.1076 38.7796 59.9115 38.0918L59.9109 38.0915L53.0879 34.1814L58.315 15.4114L58.3153 15.4104C58.5463 14.5745 58.0983 13.6782 57.2659 13.3741L57.0943 13.8437ZM57.0943 13.8437C57.6794 14.0574 57.9957 14.6897 57.8333 15.2772L48.2086 34.7727L55.5724 14.55C55.7979 13.9357 56.4792 13.6179 57.0943 13.8437ZM25.9337 65.3106L26.0919 65.8497L26.1551 65.8229C27.4959 68.3362 31.5633 66.9062 30.7795 63.9073L30.7776 63.9001L30.7755 63.8929L24.6359 42.9752L24.6354 42.9737C24.2462 41.663 22.8755 40.8861 21.5454 41.2539L13.9658 43.3322L4.31999 26.3876L4.31934 26.3865C3.88791 25.6332 2.94008 25.3167 2.1361 25.6936C1.28972 26.0889 0.927248 27.095 1.3262 27.9374C1.32628 27.9376 1.32635 27.9377 1.32643 27.9379L10.4989 47.4178C10.4992 47.4184 10.4994 47.4189 10.4997 47.4194C11.0025 48.5039 12.2528 49.0726 13.4238 48.7082L20.4918 46.7702L25.9337 65.3106Z" fill="#96DB0A"/>
<path d="M35.0339 59.1237L34.9763 59.1382C35.0489 59.9354 35.3988 60.5503 35.9088 60.9516C36.4109 61.3467 37.039 61.5121 37.6415 61.4755C38.244 61.4389 38.847 61.1988 39.298 60.749C39.7562 60.292 40.0321 59.6434 40.0101 58.8493L40.0099 58.8418L40.0095 58.8343L38.2083 27.6632C38.2082 27.6623 38.2082 27.6613 38.2081 27.6603C38.1311 26.0725 36.5369 24.9256 35.0036 25.3768C35.0025 25.3772 35.0014 25.3775 35.0003 25.3778L23.2747 28.6806L19.4971 2.61436L19.4968 2.61222C19.3664 1.73938 18.5752 1.09685 17.6785 1.17688L35.0339 59.1237ZM35.0339 59.1237L34.9773 59.1269L33.3567 31.0816C32.1082 31.4333 30.6019 31.8579 29.0959 32.2825L28.048 32.5779C24.992 33.4395 22.163 34.237 21.8301 34.3283L21.8302 34.3286C20.3486 34.7633 18.8087 33.6914 18.6888 32.1603C18.6888 32.1594 18.6887 32.1585 18.6886 32.1576M35.0339 59.1237L18.6886 32.1576M18.6886 32.1576L16.1454 3.00325L16.1453 3.00185C16.0671 2.07525 16.748 1.2598 17.6783 1.1769L18.6886 32.1576ZM57.0943 13.8437L57.2666 13.3744C56.391 13.0529 55.4232 13.5055 55.1031 14.3778L55.1026 14.379L47.7394 34.6C47.7393 34.6003 47.7392 34.6006 47.7391 34.6009C47.3282 35.7184 47.8029 37.0061 48.8885 37.5795L55.2508 41.2255L45.9258 58.1375L45.8083 58.3507L45.8191 58.376C45.5535 59.0131 45.5486 59.6381 45.7444 60.1863C45.9592 60.7876 46.4029 61.2621 46.9325 61.5522C47.462 61.8423 48.1005 61.9607 48.7222 61.8203C49.3539 61.6777 49.9332 61.2754 50.3378 60.5906L50.3416 60.5842L50.3452 60.5777L60.8669 41.4954L60.8677 41.494C61.5246 40.2937 61.1076 38.7796 59.9115 38.0918L59.9109 38.0915L53.0879 34.1814L58.315 15.4114L58.3153 15.4104C58.5463 14.5745 58.0983 13.6782 57.2659 13.3741L57.0943 13.8437ZM57.0943 13.8437C57.6794 14.0574 57.9957 14.6897 57.8333 15.2772L48.2086 34.7727L55.5724 14.55C55.7979 13.9357 56.4792 13.6179 57.0943 13.8437ZM25.9337 65.3106L26.0919 65.8497L26.1551 65.8229C27.4959 68.3362 31.5633 66.9062 30.7795 63.9073L30.7776 63.9001L30.7755 63.8929L24.6359 42.9752L24.6354 42.9737C24.2462 41.663 22.8755 40.8861 21.5454 41.2539L13.9658 43.3322L4.31999 26.3876L4.31934 26.3865C3.88791 25.6332 2.94008 25.3167 2.1361 25.6936C1.28972 26.0889 0.927248 27.095 1.3262 27.9374C1.32628 27.9376 1.32635 27.9377 1.32643 27.9379L10.4989 47.4178C10.4992 47.4184 10.4994 47.4189 10.4997 47.4194C11.0025 48.5039 12.2528 49.0726 13.4238 48.7082L20.4918 46.7702L25.9337 65.3106Z" stroke="#96DB0A"/>
<path d="M35.0339 59.1237L34.9763 59.1382C35.0489 59.9354 35.3988 60.5503 35.9088 60.9516C36.4109 61.3467 37.039 61.5121 37.6415 61.4755C38.244 61.4389 38.847 61.1988 39.298 60.749C39.7562 60.292 40.0321 59.6434 40.0101 58.8493L40.0099 58.8418L40.0095 58.8343L38.2083 27.6632C38.2082 27.6623 38.2082 27.6613 38.2081 27.6603C38.1311 26.0725 36.5369 24.9256 35.0036 25.3768C35.0025 25.3772 35.0014 25.3775 35.0003 25.3778L23.2747 28.6806L19.4971 2.61436L19.4968 2.61222C19.3664 1.73938 18.5752 1.09685 17.6785 1.17688L35.0339 59.1237ZM35.0339 59.1237L34.9773 59.1269L33.3567 31.0816C32.1082 31.4333 30.6019 31.8579 29.0959 32.2825L28.048 32.5779C24.992 33.4395 22.163 34.237 21.8301 34.3283L21.8302 34.3286C20.3486 34.7633 18.8087 33.6914 18.6888 32.1603C18.6888 32.1594 18.6887 32.1585 18.6886 32.1576M35.0339 59.1237L18.6886 32.1576M18.6886 32.1576L16.1454 3.00325L16.1453 3.00185C16.0671 2.07525 16.748 1.2598 17.6783 1.1769L18.6886 32.1576ZM57.0943 13.8437L57.2666 13.3744C56.391 13.0529 55.4232 13.5055 55.1031 14.3778L55.1026 14.379L47.7394 34.6C47.7393 34.6003 47.7392 34.6006 47.7391 34.6009C47.3282 35.7184 47.8029 37.0061 48.8885 37.5795L55.2508 41.2255L45.9258 58.1375L45.8083 58.3507L45.8191 58.376C45.5535 59.0131 45.5486 59.6381 45.7444 60.1863C45.9592 60.7876 46.4029 61.2621 46.9325 61.5522C47.462 61.8423 48.1005 61.9607 48.7222 61.8203C49.3539 61.6777 49.9332 61.2754 50.3378 60.5906L50.3416 60.5842L50.3452 60.5777L60.8669 41.4954L60.8677 41.494C61.5246 40.2937 61.1076 38.7796 59.9115 38.0918L59.9109 38.0915L53.0879 34.1814L58.315 15.4114L58.3153 15.4104C58.5463 14.5745 58.0983 13.6782 57.2659 13.3741L57.0943 13.8437ZM57.0943 13.8437C57.6794 14.0574 57.9957 14.6897 57.8333 15.2772L48.2086 34.7727L55.5724 14.55C55.7979 13.9357 56.4792 13.6179 57.0943 13.8437ZM25.9337 65.3106L26.0919 65.8497L26.1551 65.8229C27.4959 68.3362 31.5633 66.9062 30.7795 63.9073L30.7776 63.9001L30.7755 63.8929L24.6359 42.9752L24.6354 42.9737C24.2462 41.663 22.8755 40.8861 21.5454 41.2539L13.9658 43.3322L4.31999 26.3876L4.31934 26.3865C3.88791 25.6332 2.94008 25.3167 2.1361 25.6936C1.28972 26.0889 0.927248 27.095 1.3262 27.9374C1.32628 27.9376 1.32635 27.9377 1.32643 27.9379L10.4989 47.4178C10.4992 47.4184 10.4994 47.4189 10.4997 47.4194C11.0025 48.5039 12.2528 49.0726 13.4238 48.7082L20.4918 46.7702L25.9337 65.3106Z" stroke="#96DB0A"/>
</g>
</svg>
