<svg width="38" height="90" viewBox="0 0 38 90" fill="none" xmlns="http://www.w3.org/2000/svg">
<path id="Vector" d="M6.04315 1.19496L6.04517 1.19575C26.4786 9.26198 39.1706 28.4689 36.6928 47.9982C34.8996 62.2597 25.3261 74.8198 11.33 81.9139L18.7668 84.0003L6.04315 1.19496ZM6.04315 1.19496C4.74183 0.684523 3.16617 1.20426 2.55274 2.51052C1.91475 3.86906 2.63996 5.37612 3.97217 5.90318L3.97258 5.90334M6.04315 1.19496L3.97258 5.90334M3.97258 5.90334C22.3417 13.1613 33.5241 30.2701 31.3637 47.3904C29.7462 60.2031 20.9233 71.6 7.87955 77.8652L10.3251 69.8164L10.3252 69.8162M3.97258 5.90334L10.3252 69.8162M10.3252 69.8162C10.7609 68.3811 9.82606 67 8.43994 66.6473M10.3252 69.8162L8.43994 66.6473M8.43994 66.6473C7.09133 66.3024 5.57916 67.0001 5.15475 68.4055C5.15457 68.4061 5.15438 68.4067 5.1542 68.4073L1.10445 81.7172L1.10323 81.7213C0.681736 83.1281 1.57364 84.4888 2.91882 84.8727L2.92289 84.8738L17.2332 88.8924C17.2352 88.893 17.2371 88.8936 17.2391 88.8941C17.5027 88.9704 17.7656 89 18.0061 89C19.0945 89 20.1968 88.349 20.5721 87.2162C21.0462 85.7932 20.1476 84.3858 18.7688 84.0008L8.43994 66.6473Z" fill="#96DB0A" stroke="#96DB0A" stroke-width="2"/>
</svg>
