<svg width="82" height="109" viewBox="0 0 82 109" fill="none" xmlns="http://www.w3.org/2000/svg">
<path d="M33.5953 106C-16.8943 98.2506 9.75354 38.5172 12.2075 38.8401C14.6614 39.1631 10.2786 60.7821 22.9013 59.5047C35.524 58.2272 22.7264 42.069 25.7063 24.9561C28.6861 7.84327 38.8541 2.99992 39.7306 3C40.6072 3.00008 26.6636 15.0846 43 28C59.3364 40.9154 55.7206 45.4169 58 48C60.2794 50.5831 60.067 27.0549 55.3332 19.6284C50.5994 12.202 79 45.7821 79 73.7115C79 101.641 47.9707 106 47.9707 106C47.9707 106 59.8917 103.74 61.2939 89.0485C62.6962 74.3572 49.9803 58.8588 47 59.5047C44.0197 60.1505 48.7273 71.8587 41.5 82.4293C34.2727 93 25.7063 80.9216 25.7063 78.5" stroke="#96DB0A" stroke-width="6" stroke-linecap="round" stroke-linejoin="round"/>
</svg>
