<svg width="60" height="70" viewBox="0 0 60 70" fill="none" xmlns="http://www.w3.org/2000/svg">
<path d="M16.7724 60.1292L16.715 60.1135C16.3861 60.8432 16.3882 61.5507 16.6348 62.151C16.8775 62.742 17.3429 63.195 17.8855 63.4596C18.4281 63.7241 19.0711 63.8117 19.6851 63.642C20.3088 63.4696 20.8681 63.0407 21.2397 62.3385L21.2432 62.3319L21.2465 62.3251L35.0141 34.3013C35.0145 34.3005 35.0149 34.2996 35.0154 34.2987C35.7295 32.8785 34.9058 31.0956 33.3488 30.7341C33.3478 30.7339 33.3467 30.7336 33.3456 30.7334L21.5124 27.84L31.0478 3.28808L31.0486 3.28606C31.3645 2.46203 30.9917 1.51336 30.1717 1.14189L16.7724 60.1292ZM16.7724 60.1292L16.7215 60.1041L29.1085 34.8905C27.8485 34.5824 26.3282 34.211 24.8082 33.8397L23.7459 33.5802C20.6632 32.8272 17.8106 32.1304 17.4761 32.0462L17.476 32.0465C15.9723 31.6959 15.159 30.0052 15.8079 28.6133C15.8083 28.6124 15.8087 28.6116 15.8091 28.6108M16.7724 60.1292L15.8091 28.6108M15.8091 28.6108L27.9385 1.97768L27.9391 1.97641C28.3269 1.13123 29.3208 0.756267 30.1716 1.14182L15.8091 28.6108ZM5.67831 61.5856L5.8058 61.0383L10.1897 42.2196L3.08281 40.4296C1.88407 40.1706 1.07536 39.0604 1.17112 37.8689C1.17117 37.8683 1.17121 37.8677 1.17126 37.8671L2.76952 16.3951C2.76954 16.3949 2.76955 16.3948 2.76956 16.3946C2.83669 15.465 3.64698 14.7675 4.57812 14.8395C4.57828 14.8395 4.57844 14.8395 4.5786 14.8395L4.53992 15.338L5.67831 61.5856ZM5.67831 61.5856L5.74658 61.5933M5.67831 61.5856L5.74658 61.5933M5.74658 61.5933C5.67731 64.441 9.92193 65.1971 10.715 62.2007L10.7169 62.1935L10.7186 62.1862L15.6646 40.9546L15.665 40.953C15.971 39.6205 15.1599 38.2697 13.8209 37.9356L6.19959 36.0159L5.74658 61.5933ZM58.2553 31.5617L58.6363 31.2379C58.0321 30.5272 56.9669 30.4451 56.259 31.047L56.258 31.0478L39.8991 45.0297C39.8989 45.0299 39.8987 45.0301 39.8985 45.0302C38.991 45.801 38.7706 47.1556 39.4336 48.1889L43.1789 54.4934L26.7401 64.6293L26.5329 64.757L26.5298 64.7844C25.9851 65.2084 25.6734 65.7501 25.5742 66.3237C25.4654 66.9529 25.6182 67.5843 25.9365 68.0974C26.2548 68.6105 26.7524 69.0277 27.3627 69.2113C27.9829 69.3979 28.6851 69.3327 29.3743 68.9356L29.3808 68.9319L29.3871 68.928L47.9355 57.4914L47.9369 57.4906C49.0993 56.7687 49.4813 55.2454 48.7782 54.0582L48.7779 54.0576L44.7615 47.2967L58.5468 33.5271L58.5475 33.5264C59.1599 32.9123 59.2109 31.9115 58.6358 31.2372L58.2553 31.5617ZM58.2553 31.5617C58.6595 32.0356 58.6239 32.7417 58.1935 33.1733L40.2226 45.4109L56.5829 31.4279C57.0815 31.004 57.8309 31.0625 58.2553 31.5617Z" fill="#96DB0A"/>
<path d="M16.7724 60.1292L16.715 60.1135C16.3861 60.8432 16.3882 61.5507 16.6348 62.151C16.8775 62.742 17.3429 63.195 17.8855 63.4596C18.4281 63.7241 19.0711 63.8117 19.6851 63.642C20.3088 63.4696 20.8681 63.0407 21.2397 62.3385L21.2432 62.3319L21.2465 62.3251L35.0141 34.3013C35.0145 34.3005 35.0149 34.2996 35.0154 34.2987C35.7295 32.8785 34.9058 31.0956 33.3488 30.7341C33.3478 30.7339 33.3467 30.7336 33.3456 30.7334L21.5124 27.84L31.0478 3.28808L31.0486 3.28606C31.3645 2.46203 30.9917 1.51336 30.1717 1.14189L16.7724 60.1292ZM16.7724 60.1292L16.7215 60.1041L29.1085 34.8905C27.8485 34.5824 26.3282 34.211 24.8082 33.8397L23.7459 33.5802C20.6632 32.8272 17.8106 32.1304 17.4761 32.0462L17.476 32.0465C15.9723 31.6959 15.159 30.0052 15.8079 28.6133C15.8083 28.6124 15.8087 28.6116 15.8091 28.6108M16.7724 60.1292L15.8091 28.6108M15.8091 28.6108L27.9385 1.97768L27.9391 1.97641C28.3269 1.13123 29.3208 0.756267 30.1716 1.14182L15.8091 28.6108ZM5.67831 61.5856L5.8058 61.0383L10.1897 42.2196L3.08281 40.4296C1.88407 40.1706 1.07536 39.0604 1.17112 37.8689C1.17117 37.8683 1.17121 37.8677 1.17126 37.8671L2.76952 16.3951C2.76954 16.3949 2.76955 16.3948 2.76956 16.3946C2.83669 15.465 3.64698 14.7675 4.57812 14.8395C4.57828 14.8395 4.57844 14.8395 4.5786 14.8395L4.53992 15.338L5.67831 61.5856ZM5.67831 61.5856L5.74658 61.5933M5.67831 61.5856L5.74658 61.5933M5.74658 61.5933C5.67731 64.441 9.92193 65.1971 10.715 62.2007L10.7169 62.1935L10.7186 62.1862L15.6646 40.9546L15.665 40.953C15.971 39.6205 15.1599 38.2697 13.8209 37.9356L6.19959 36.0159L5.74658 61.5933ZM58.2553 31.5617L58.6363 31.2379C58.0321 30.5272 56.9669 30.4451 56.259 31.047L56.258 31.0478L39.8991 45.0297C39.8989 45.0299 39.8987 45.0301 39.8985 45.0302C38.991 45.801 38.7706 47.1556 39.4336 48.1889L43.1789 54.4934L26.7401 64.6293L26.5329 64.757L26.5298 64.7844C25.9851 65.2084 25.6734 65.7501 25.5742 66.3237C25.4654 66.9529 25.6182 67.5843 25.9365 68.0974C26.2548 68.6105 26.7524 69.0277 27.3627 69.2113C27.9829 69.3979 28.6851 69.3327 29.3743 68.9356L29.3808 68.9319L29.3871 68.928L47.9355 57.4914L47.9369 57.4906C49.0993 56.7687 49.4813 55.2454 48.7782 54.0582L48.7779 54.0576L44.7615 47.2967L58.5468 33.5271L58.5475 33.5264C59.1599 32.9123 59.2109 31.9115 58.6358 31.2372L58.2553 31.5617ZM58.2553 31.5617C58.6595 32.0356 58.6239 32.7417 58.1935 33.1733L40.2226 45.4109L56.5829 31.4279C57.0815 31.004 57.8309 31.0625 58.2553 31.5617Z" stroke="#96DB0A"/>
<path d="M16.7724 60.1292L16.715 60.1135C16.3861 60.8432 16.3882 61.5507 16.6348 62.151C16.8775 62.742 17.3429 63.195 17.8855 63.4596C18.4281 63.7241 19.0711 63.8117 19.6851 63.642C20.3088 63.4696 20.8681 63.0407 21.2397 62.3385L21.2432 62.3319L21.2465 62.3251L35.0141 34.3013C35.0145 34.3005 35.0149 34.2996 35.0154 34.2987C35.7295 32.8785 34.9058 31.0956 33.3488 30.7341C33.3478 30.7339 33.3467 30.7336 33.3456 30.7334L21.5124 27.84L31.0478 3.28808L31.0486 3.28606C31.3645 2.46203 30.9917 1.51336 30.1717 1.14189L16.7724 60.1292ZM16.7724 60.1292L16.7215 60.1041L29.1085 34.8905C27.8485 34.5824 26.3282 34.211 24.8082 33.8397L23.7459 33.5802C20.6632 32.8272 17.8106 32.1304 17.4761 32.0462L17.476 32.0465C15.9723 31.6959 15.159 30.0052 15.8079 28.6133C15.8083 28.6124 15.8087 28.6116 15.8091 28.6108M16.7724 60.1292L15.8091 28.6108M15.8091 28.6108L27.9385 1.97768L27.9391 1.97641C28.3269 1.13123 29.3208 0.756267 30.1716 1.14182L15.8091 28.6108ZM5.67831 61.5856L5.8058 61.0383L10.1897 42.2196L3.08281 40.4296C1.88407 40.1706 1.07536 39.0604 1.17112 37.8689C1.17117 37.8683 1.17121 37.8677 1.17126 37.8671L2.76952 16.3951C2.76954 16.3949 2.76955 16.3948 2.76956 16.3946C2.83669 15.465 3.64698 14.7675 4.57812 14.8395C4.57828 14.8395 4.57844 14.8395 4.5786 14.8395L4.53992 15.338L5.67831 61.5856ZM5.67831 61.5856L5.74658 61.5933M5.67831 61.5856L5.74658 61.5933M5.74658 61.5933C5.67731 64.441 9.92193 65.1971 10.715 62.2007L10.7169 62.1935L10.7186 62.1862L15.6646 40.9546L15.665 40.953C15.971 39.6205 15.1599 38.2697 13.8209 37.9356L6.19959 36.0159L5.74658 61.5933ZM58.2553 31.5617L58.6363 31.2379C58.0321 30.5272 56.9669 30.4451 56.259 31.047L56.258 31.0478L39.8991 45.0297C39.8989 45.0299 39.8987 45.0301 39.8985 45.0302C38.991 45.801 38.7706 47.1556 39.4336 48.1889L43.1789 54.4934L26.7401 64.6293L26.5329 64.757L26.5298 64.7844C25.9851 65.2084 25.6734 65.7501 25.5742 66.3237C25.4654 66.9529 25.6182 67.5843 25.9365 68.0974C26.2548 68.6105 26.7524 69.0277 27.3627 69.2113C27.9829 69.3979 28.6851 69.3327 29.3743 68.9356L29.3808 68.9319L29.3871 68.928L47.9355 57.4914L47.9369 57.4906C49.0993 56.7687 49.4813 55.2454 48.7782 54.0582L48.7779 54.0576L44.7615 47.2967L58.5468 33.5271L58.5475 33.5264C59.1599 32.9123 59.2109 31.9115 58.6358 31.2372L58.2553 31.5617ZM58.2553 31.5617C58.6595 32.0356 58.6239 32.7417 58.1935 33.1733L40.2226 45.4109L56.5829 31.4279C57.0815 31.004 57.8309 31.0625 58.2553 31.5617Z" stroke="#96DB0A"/>
</svg>
