<svg width="326" height="52" viewBox="0 0 326 52" fill="none" xmlns="http://www.w3.org/2000/svg">
<path d="M319.913 0.381363L6.16719 0C2.92275 0 0.187758 2.13115 6.22272e-05 4.89042C-0.187633 7.73943 2.4401 10.1622 5.84543 10.3192C81.862 13.3253 158.2 15.6583 233.949 21.132C232.126 21.2217 230.383 21.3115 228.801 21.4012C209.602 22.2761 190.323 22.9267 171.044 24.0932C161.338 25.1027 125.059 25.7532 121.305 33.1337C119.669 37.5306 125.541 39.5945 129.081 40.8956C147.663 46.6609 166.647 48.9491 185.845 51.9776C187.105 52.157 188.312 51.4616 188.553 50.4072C188.795 49.3529 187.964 48.321 186.676 48.1191C167.21 44.6195 146.376 42.3089 128.384 35.3322C127.955 35.1303 127.552 34.906 127.257 34.6816C131.333 32.9543 137.688 32.2364 142.943 31.6083C152.355 30.5988 161.928 30.0604 171.5 29.5893C195.284 28.4676 219.738 28.1311 243.655 27.1441C249.581 26.7179 255.936 26.8525 261.969 25.2597C263.042 24.7886 263.632 24.6989 264.677 23.3305C265.294 22.5453 265.401 20.975 264.785 20.0328C264.409 19.3149 263.39 18.4625 262.881 18.283C254.89 15.3443 245.666 15.3218 237.193 14.2002C221.641 12.8542 206.063 11.6652 190.511 10.5436L319.86 10.7006C328.065 10.5211 327.931 0.538395 319.86 0.381363H319.913Z" fill="#96DB0A"/>
</svg>
